<?xml version="1.0" encoding="utf-8"?>
<!-- Generator: Adobe Illustrator 16.0.0, SVG Export Plug-In . SVG Version: 6.00 Build 0)  -->
<!DOCTYPE svg PUBLIC "-//W3C//DTD SVG 1.1//EN" "http://www.w3.org/Graphics/SVG/1.1/DTD/svg11.dtd">
<svg version="1.1"
	 id="svg2" xmlns:dc="http://purl.org/dc/elements/1.1/" xmlns:cc="http://creativecommons.org/ns#" xmlns:rdf="http://www.w3.org/1999/02/22-rdf-syntax-ns#" xmlns:svg="http://www.w3.org/2000/svg" xmlns:sodipodi="http://sodipodi.sourceforge.net/DTD/sodipodi-0.dtd" xmlns:inkscape="http://www.inkscape.org/namespaces/inkscape" sodipodi:docname="Intel Logo.svg" inkscape:version="0.91 r13725"
	 xmlns="http://www.w3.org/2000/svg" xmlns:xlink="http://www.w3.org/1999/xlink" x="0px" y="0px" width="151.443px" height="100px"
	 viewBox="0 498.668 151.443 100" enable-background="new 0 498.668 151.443 100" xml:space="preserve">
<polygon fill="#404040" points="130.89,533.289 130.004,533.289 130.004,532.931 132.185,532.931 132.185,533.289 131.3,533.289 
	131.3,535.776 130.89,535.776 "/>
<polygon fill="#404040" points="132.596,532.931 133.272,532.931 134.17,535.29 135.049,532.931 135.721,532.931 135.721,535.776 
	135.312,535.776 135.312,533.314 135.306,533.314 134.363,535.776 133.958,535.776 133.016,533.314 133.008,533.314 
	133.008,535.776 132.596,535.776 "/>
<rect x="33.566" y="532.882" fill="#404040" width="4.062" height="15.187"/>
<path fill="#404040" d="M61.644,532.894h4.984l5.881,15.262h-4.459l-1.138-3.256h-5.729l-1.204,3.256h-4.133L61.644,532.894
	 M64.136,536.042h-0.043l-1.969,5.97h3.826L64.136,536.042"/>
<path fill="#404040" d="M74.489,532.893h7.021c2.841,0,4.963,1.245,4.963,3.868c0,1.928-0.983,3-2.688,3.566v0.043
	c2.031,0.418,3.083,1.51,3.083,3.371c0,3.651-3.215,4.414-5.947,4.414h-6.431V532.893 M78.555,545.272h1.205
	c1.486,0,3.038-0.221,3.038-1.771c0-1.664-1.596-1.815-2.993-1.815h-1.25V545.272 M78.555,538.929h1.138
	c1.335,0,2.711-0.328,2.711-1.619c0-1.4-1.31-1.527-2.665-1.527h-1.184V538.929"/>
<polyline fill="#404040" points="92.372,542.406 86.732,532.893 91.411,532.893 94.407,539.016 97.359,532.893 102.041,532.893 
	96.44,542.406 96.44,548.155 92.372,548.155 92.372,542.406 "/>
<polyline fill="#404040" points="107.473,535.909 103.715,535.909 103.715,532.893 115.302,532.893 115.302,535.909 
	111.544,535.909 111.544,548.155 107.473,548.155 107.473,535.909 "/>
<polyline fill="#404040" points="117.239,532.893 127.998,532.893 127.998,535.782 121.304,535.782 121.304,538.929 
	127.624,538.929 127.624,541.815 121.304,541.815 121.304,545.272 128.236,545.272 128.236,548.155 117.239,548.155 
	117.239,532.893 "/>
<path fill="#404040" d="M24.33,536.233c-2.705,0.225-4.184,2.002-4.184,4.301c0,2.234,2.072,4.113,4.071,4.113l0.439-0.005h0.739
	c0,0,0.49,0,0.494-0.478v-4.797h4.176c0,2.707-0.01,8.787-0.01,8.787s-4.123-0.003-6.516-0.003c-4.5,0-7.711-3.718-7.711-7.618
	c0-4.22,3.492-7.744,7.842-7.588l6.247,0.02l-0.003,3.268H24.33"/>
<path fill="#404040" d="M48.497,536.233c-2.707,0.225-4.181,2.002-4.181,4.301c0,2.234,2.067,4.113,4.068,4.113l0.438-0.005h0.742
	c0,0,0.486,0,0.49-0.478v-4.797h4.169c0,2.707-0.007,8.787-0.007,8.787s-4.119-0.003-6.51-0.003c-4.498,0-7.706-3.718-7.706-7.618
	c0-4.22,3.489-7.744,7.84-7.588l6.237,0.02l-0.002,3.268H48.497"/>
<polyline fill="#404040" points="17.238,554.222 15.721,554.222 15.721,553.39 19.818,553.39 19.818,554.222 18.3,554.222 
	18.3,558.682 17.238,558.682 17.238,554.222 "/>
<polyline fill="#404040" points="27.463,553.39 30.592,553.39 30.592,554.222 28.528,554.222 28.528,555.527 30.416,555.527 
	30.416,556.361 28.528,556.361 28.528,557.848 30.605,557.848 30.605,558.682 27.463,558.682 27.463,553.39 "/>
<path fill="#404040" d="M42.501,558.607c-0.387,0.092-0.806,0.166-1.206,0.166c-1.713,0-2.905-0.858-2.905-2.649
	c0-1.812,1.109-2.829,2.905-2.829c0.35,0,0.811,0.071,1.199,0.218l-0.078,0.898c-0.398-0.23-0.765-0.282-1.146-0.282
	c-1.089,0-1.771,0.839-1.771,1.921c0,1.078,0.667,1.889,1.796,1.889c0.416,0,0.911-0.091,1.16-0.221L42.501,558.607"/>
<polyline fill="#404040" points="50.249,553.39 51.309,553.39 51.309,555.527 53.433,555.527 53.433,553.39 54.495,553.39 
	54.495,558.682 53.433,558.682 53.433,556.361 51.309,556.361 51.309,558.682 50.249,558.682 50.249,553.39 "/>
<polyline fill="#404040" points="62.636,553.39 63.943,553.39 65.959,557.349 65.974,557.349 65.974,553.39 66.992,553.39 
	66.992,558.682 65.695,558.682 63.668,554.724 63.654,554.724 63.654,558.682 62.636,558.682 62.636,553.39 "/>
<path fill="#404040" d="M77.469,553.295c1.66,0,2.595,1.123,2.595,2.725c0,1.601-0.917,2.755-2.595,2.755
	c-1.7,0-2.593-1.131-2.593-2.755C74.877,554.397,75.785,553.295,77.469,553.295 M77.469,557.939c1.082,0,1.487-0.96,1.487-1.921
	c0-0.933-0.433-1.889-1.487-1.889c-1.054,0-1.487,0.956-1.487,1.889C75.982,556.979,76.385,557.939,77.469,557.939"/>
<polyline fill="#404040" points="88,553.39 89.063,553.39 89.063,557.848 91.119,557.848 91.119,558.682 88,558.682 88,553.39 "/>
<path fill="#404040" d="M101.097,553.295c1.661,0,2.592,1.123,2.592,2.725c0,1.601-0.918,2.755-2.592,2.755
	c-1.703,0-2.595-1.131-2.595-2.755C98.503,554.397,99.41,553.295,101.097,553.295 M101.097,557.939c1.084,0,1.486-0.96,1.486-1.921
	c0-0.933-0.435-1.889-1.486-1.889c-1.056,0-1.491,0.956-1.491,1.889C99.606,556.979,100.01,557.939,101.097,557.939"/>
<path fill="#404040" d="M115.76,554.411c-0.41-0.189-0.938-0.281-1.365-0.281c-1.238,0-1.92,0.838-1.92,1.92
	c0,1.079,0.668,1.89,1.798,1.89c0.288,0,0.516-0.031,0.699-0.075v-1.384h-1.123v-0.831h2.139v2.853
	c-0.562,0.152-1.145,0.271-1.715,0.271c-1.713,0-2.906-0.858-2.906-2.649c0-1.812,1.108-2.829,2.906-2.829
	c0.614,0,1.103,0.084,1.555,0.218L115.76,554.411"/>
<polyline fill="#404040" points="125.471,556.589 123.538,553.39 124.779,553.39 126.035,555.608 127.307,553.39 128.43,553.39 
	126.533,556.589 126.533,558.682 125.471,558.682 125.471,556.589 "/>
</svg>
