<?xml version="1.0" encoding="utf-8"?>
<!-- Generator: Adobe Illustrator 16.0.0, SVG Export Plug-In . SVG Version: 6.00 Build 0)  -->
<!DOCTYPE svg PUBLIC "-//W3C//DTD SVG 1.1//EN" "http://www.w3.org/Graphics/SVG/1.1/DTD/svg11.dtd">
<svg version="1.1"
	 id="svg2" xmlns:dc="http://purl.org/dc/elements/1.1/" xmlns:cc="http://creativecommons.org/ns#" xmlns:rdf="http://www.w3.org/1999/02/22-rdf-syntax-ns#" xmlns:svg="http://www.w3.org/2000/svg" xmlns:sodipodi="http://sodipodi.sourceforge.net/DTD/sodipodi-0.dtd" xmlns:inkscape="http://www.inkscape.org/namespaces/inkscape" sodipodi:docname="Intel Logo.svg" inkscape:version="0.91 r13725"
	 xmlns="http://www.w3.org/2000/svg" xmlns:xlink="http://www.w3.org/1999/xlink" x="0px" y="0px" width="151.443px" height="100px"
	 viewBox="0 375.334 151.443 100" enable-background="new 0 375.334 151.443 100" xml:space="preserve">
<g>
	<g>
		<path fill="#404040" d="M115.809,439.353l7.676-21.168c0,0-5.737,0-11.475,1.151l-7.257,20.017H115.809z M114.501,412.468
			l-1.474,4.065c5.772-1.153,11.475-1.153,11.475-1.153l1.473-4.064C125.975,411.315,120.238,411.315,114.501,412.468z"/>
		<path fill="#404040" d="M73.075,438.199c3.897,0.756,7.925,1.153,12.045,1.153h0.001c6.54,0,9.227-0.65,12.619-2.383
			c2.891-1.479,4.79-3.046,5.606-5.747c0.7-2.314-0.194-4.499-2.269-5.888c-2.075-1.391-4.085-2.047-6.473-3.364
			c-2.087-1.151-3.226-2.019-3.087-3.226c0.294-2.531,3.001-3.365,6.731-3.365l0,0c3.634,0,7.191,0.33,10.644,0.959l1.402-3.871
			c-3.898-0.754-7.927-1.152-12.046-1.152l0,0c-6.54,0-9.226,0.65-12.618,2.383c-2.892,1.479-4.791,3.046-5.607,5.749
			c-0.699,2.313,0.194,4.497,2.271,5.888c2.073,1.389,4.083,2.046,6.472,3.364c2.086,1.15,3.227,2.017,3.084,3.224
			c-0.293,2.533-3,3.363-6.729,3.363H85.12c-3.633,0-7.19-0.328-10.643-0.958L73.075,438.199z"/>
		<path fill="#404040" d="M68.867,439.353l7.117-19.627c0.578-1.592,0.615-4.459-0.983-6.026c-1.601-1.573-3.505-2.384-7.025-2.384
			c-3.521-0.001-6.378,0.924-8.675,1.823c-1.235,0.481-3.068,1.421-5.143,2.677c-0.201-0.795-0.566-1.541-1.15-2.116
			c-1.601-1.573-3.506-2.384-7.025-2.384c-3.521-0.001-6.377,0.924-8.676,1.823c-1.234,0.481-3.067,1.421-5.142,2.677
			c-0.2-0.795-0.565-1.541-1.15-2.116c-1.6-1.573-3.504-2.384-7.025-2.384l-10.165,28.037h11.058l5.082-14.018
			c0.921-2.544,3.43-4.965,4.806-6.028c1.752-1.353,9.586-3.505,7.452,2.384l-6.403,17.662h11.057l0,0l5.084-14.021
			c0.922-2.541,3.428-4.961,4.804-6.025c1.751-1.352,9.587-3.504,7.452,2.384l-6.403,17.663H68.867z"/>
	</g>
	<g>
		<path fill="#404040" d="M131.208,411.726h-0.662v1.707h-0.545v-1.707h-0.662v-0.41h1.869V411.726z"/>
		<path fill="#404040" d="M133.825,413.433h-0.545v-1.418l-0.392,0.92h-0.374l-0.392-0.92v1.418h-0.514v-2.117h0.632l0.475,1.062
			l0.473-1.062h0.637V413.433z"/>
	</g>
</g>
</svg>
