<?xml version="1.0" encoding="utf-8"?>
<!-- Generator: Adobe Illustrator 16.0.0, SVG Export Plug-In . SVG Version: 6.00 Build 0)  -->
<!DOCTYPE svg PUBLIC "-//W3C//DTD SVG 1.1//EN" "http://www.w3.org/Graphics/SVG/1.1/DTD/svg11.dtd">
<svg version="1.1"
	 id="svg2" xmlns:dc="http://purl.org/dc/elements/1.1/" xmlns:cc="http://creativecommons.org/ns#" xmlns:rdf="http://www.w3.org/1999/02/22-rdf-syntax-ns#" xmlns:svg="http://www.w3.org/2000/svg" xmlns:sodipodi="http://sodipodi.sourceforge.net/DTD/sodipodi-0.dtd" xmlns:inkscape="http://www.inkscape.org/namespaces/inkscape" sodipodi:docname="Intel Logo.svg" inkscape:version="0.91 r13725"
	 xmlns="http://www.w3.org/2000/svg" xmlns:xlink="http://www.w3.org/1999/xlink" x="0px" y="0px" width="151.443px" height="100px"
	 viewBox="0 112 151.443 100" enable-background="new 0 112 151.443 100" xml:space="preserve">
<path id="path17" fill="#404040" d="M134.885,203.383c0,1.288-0.945,2.15-2.064,2.15v-0.006c-1.15,0.006-2.078-0.856-2.078-2.146
	c0-1.286,0.928-2.147,2.078-2.147C133.939,201.234,134.885,202.096,134.885,203.383z M135.72,203.383c0-1.768-1.371-2.793-2.9-2.793
	c-1.541,0-2.914,1.025-2.914,2.793c0,1.766,1.375,2.796,2.914,2.796C134.349,206.179,135.72,205.148,135.72,203.383
	 M132.338,203.619h0.312l0.721,1.265h0.791l-0.799-1.317c0.412-0.029,0.752-0.226,0.752-0.781c0-0.688-0.477-0.91-1.281-0.91h-1.164
	v3.01h0.67v-1.266 M132.338,203.109v-0.724h0.467c0.254,0,0.6,0.021,0.6,0.329c0,0.336-0.18,0.395-0.479,0.395H132.338"/>
<path id="path19" fill="#404040" d="M116.176,187.99l3.619,9.899h-7.348L116.176,187.99z M112.302,184.136l-8.34,21.128h5.889
	l1.318-3.732h9.869l1.248,3.732h6.393l-8.4-21.13L112.302,184.136z M95.56,205.271h5.975v-21.143l-5.975-0.001V205.271z
	 M54.089,184.128l-4.983,16.757l-4.774-16.756l-6.446-0.001l6.819,21.144h8.606l6.873-21.144H54.089z M78.236,188.732h2.566
	c3.725,0,6.135,1.672,6.135,6.012c0,4.342-2.41,6.015-6.135,6.015h-2.566V188.732z M72.312,184.128v21.144h9.686
	c5.16,0,6.844-0.857,8.666-2.781c1.287-1.352,2.119-4.315,2.119-7.558c0-2.973-0.703-5.623-1.932-7.274
	c-2.215-2.951-5.4-3.529-10.158-3.529L72.312,184.128L72.312,184.128z M15.721,184.099v21.173h6.024v-16.076l4.668,0.002
	c1.545,0,2.646,0.386,3.392,1.181c0.944,1.006,1.33,2.628,1.33,5.598v9.298h5.838v-11.699c0-8.349-5.321-9.475-10.528-9.475
	L15.721,184.099L15.721,184.099z M62.697,184.128l0.002,21.144h5.972v-21.144H62.697z"/>
<path id="path21" fill="#404040" d="M31.777,142.029c0,0,7.684-11.336,23.024-12.51v-4.113
	c-16.993,1.365-31.708,15.758-31.708,15.758s8.334,24.093,31.708,26.299v-4.372C37.65,160.933,31.777,142.029,31.777,142.029z
	 M54.802,154.396v4.004c-12.964-2.311-16.562-15.787-16.562-15.787s6.226-6.896,16.562-8.014v4.395c-0.008,0-0.013-0.004-0.02-0.004
	c-5.426-0.65-9.664,4.418-9.664,4.418S47.494,151.941,54.802,154.396 M54.802,117.82v7.586c0.499-0.037,0.998-0.07,1.499-0.086
	c19.319-0.651,31.907,15.844,31.907,15.844s-14.458,17.58-29.52,17.58c-1.381,0-2.673-0.129-3.887-0.344v4.691
	c1.038,0.131,2.114,0.209,3.237,0.209c14.017,0,24.151-7.158,33.966-15.63c1.629,1.303,8.291,4.474,9.66,5.86
	c-9.332,7.813-31.081,14.112-43.411,14.112c-1.188,0-2.33-0.071-3.452-0.181v6.592h53.275V117.82H54.802z M54.802,134.6v-5.08
	c0.494-0.035,0.991-0.061,1.499-0.076c13.894-0.438,23.007,11.938,23.007,11.938s-9.844,13.672-20.4,13.672
	c-1.519,0-2.881-0.244-4.105-0.656v-15.402c5.408,0.652,6.497,3.041,9.749,8.461l7.231-6.096c0,0-5.279-6.925-14.178-6.925
	C56.636,134.435,55.712,134.503,54.802,134.6"/>
</svg>
