<?xml version="1.0" encoding="utf-8"?>
<!-- Generator: Adobe Illustrator 16.0.0, SVG Export Plug-In . SVG Version: 6.00 Build 0)  -->
<!DOCTYPE svg PUBLIC "-//W3C//DTD SVG 1.1//EN" "http://www.w3.org/Graphics/SVG/1.1/DTD/svg11.dtd">
<svg version="1.1"
	 id="svg2" xmlns:dc="http://purl.org/dc/elements/1.1/" xmlns:cc="http://creativecommons.org/ns#" xmlns:rdf="http://www.w3.org/1999/02/22-rdf-syntax-ns#" xmlns:svg="http://www.w3.org/2000/svg" xmlns:sodipodi="http://sodipodi.sourceforge.net/DTD/sodipodi-0.dtd" xmlns:inkscape="http://www.inkscape.org/namespaces/inkscape" sodipodi:docname="Intel Logo.svg" inkscape:version="0.91 r13725"
	 xmlns="http://www.w3.org/2000/svg" xmlns:xlink="http://www.w3.org/1999/xlink" x="0px" y="0px" width="151.443px" height="100px"
	 viewBox="0 248.667 151.443 100" enable-background="new 0 248.667 151.443 100" xml:space="preserve">
<g id="layer1" transform="translate(-15.46551,-145.9927)" inkscape:label="Ebene 1" inkscape:groupmode="layer">
	<path id="path7372" fill="#404040" d="M149.21,433.789c1.688,9.298-23.771,21.713-56.861,27.726
		c-33.092,6.013-61.292,3.319-62.98-5.979c-1.688-9.315,23.771-21.73,56.864-27.726C119.322,421.797,147.521,424.473,149.21,433.789
		 M95.15,447.355c0-4.945-5.241-3.811-5.241-5.81c0-0.559,0.032-0.948,0.929-0.948c0.925,0,0.865,0.848,0.865,1.711h3.127
		c0.355-3.15-1.078-3.964-3.843-3.964c-3.538,0-4.283,1.135-4.283,3.676c0,4.353,5.025,3.37,5.025,5.487
		c0,0.745-0.271,1.033-0.749,1.033c-1.121,0-1.085-0.694-1.085-1.812h-3.439c-0.235,2.354,0.53,4.218,3.945,4.218
		C92.499,450.946,95.15,450.54,95.15,447.355 M49.197,451.131c2.099,0,4.749-0.406,4.749-3.573c0-4.963-5.24-3.828-5.24-5.826
		c0-0.559,0.032-0.948,0.926-0.948c0.927,0,0.864,0.847,0.865,1.711h3.127c0.357-3.15-1.075-3.964-3.843-3.964
		c-0.337,0-0.652,0.018-0.94,0.034c-0.991,0.424-1.947,0.847-2.875,1.287c-0.351,0.575-0.468,1.355-0.468,2.354
		c0,4.353,5.025,3.37,5.027,5.487c-0.001,0.745-0.271,1.033-0.749,1.033c-1.123,0-1.086-0.678-1.086-1.812h-3.438
		C45.015,449.269,45.782,451.131,49.197,451.131 M61.63,441.41l1.411,9.281h3.294l-2.046-11.872h-5.238l-2.048,11.872H60.3
		L61.63,441.41 M76.263,445.238l-1.016-6.486h-5.298l-0.218,11.906h3.021l0.152-8.808l1.889,8.808h3.179l1.863-8.841l0.044,8.841
		h3.144l-0.254-11.906h-5.281L76.263,445.238 M98.687,438.616v8.655c0,2.303,1.412,3.759,4.344,3.759
		c3.25,0,4.324-1.931,4.324-3.759v-8.655h-3.322v8.587c0,0.897,0.002,1.372-1.037,1.372c-0.889,0-0.891-0.475-0.891-1.372v-8.587
		H98.687 M121.619,450.573v-11.957h-3.08l0.014,7.198l-3.07-7.198h-3.922v11.957h3.066l-0.004-7.181l3.283,7.181H121.619
		 M129.976,437.972c-4.215,0-4.369,3.218-4.369,6.385c0,4.454,0.131,6.318,3.918,6.486c1.4-0.592,2.74-1.202,4.018-1.812
		c0.213-0.355,0.369-0.745,0.375-1.186v-3.98h-3.977l-0.002,1.796h0.826v1.812c0,0.83-0.416,0.983-0.842,0.983
		c-0.65,0-0.896-0.356-0.896-0.983c0-0.728,0.002-3.624-0.012-5.859c0-0.797,0.254-1.203,0.885-1.203c1.113,0,0.85,0.982,0.85,1.812
		h3.168C134.146,439.361,132.499,437.972,129.976,437.972"/>
</g>
</svg>
