<?xml version="1.0" encoding="utf-8"?>
<!-- Generator: Adobe Illustrator 16.0.0, SVG Export Plug-In . SVG Version: 6.00 Build 0)  -->
<!DOCTYPE svg PUBLIC "-//W3C//DTD SVG 1.1//EN" "http://www.w3.org/Graphics/SVG/1.1/DTD/svg11.dtd">
<svg version="1.1"
	 id="svg2" xmlns:dc="http://purl.org/dc/elements/1.1/" xmlns:cc="http://creativecommons.org/ns#" xmlns:rdf="http://www.w3.org/1999/02/22-rdf-syntax-ns#" xmlns:svg="http://www.w3.org/2000/svg" xmlns:sodipodi="http://sodipodi.sourceforge.net/DTD/sodipodi-0.dtd" xmlns:inkscape="http://www.inkscape.org/namespaces/inkscape" sodipodi:docname="Intel Logo.svg" inkscape:version="0.91 r13725"
	 xmlns="http://www.w3.org/2000/svg" xmlns:xlink="http://www.w3.org/1999/xlink" x="0px" y="0px" width="151.443px" height="100px"
	 viewBox="0 747.688 151.443 100" enable-background="new 0 747.688 151.443 100" xml:space="preserve">
<path id="path11" fill="#404040" d="M21.007,792.079c-0.584-0.271-2.472-1.036-3.102-2.567c-0.81-1.892,0.18-4.233,2.878-4.323
	c2.112-0.09,3.866,1.891,4.496,3.152c0.27,0.495,0.583,1.486,0.718,2.656c0.181,0,0.765,0,0.765,0l0.047-6.439c0,0-0.54,0-0.811,0
	c-0.09,0.359-0.09,0.721-0.359,0.991c-0.315,0.45-1.349-0.091-1.753-0.271c-0.585-0.271-1.8-0.766-3.372-0.811
	c-2.383,0-5.98,1.98-5.98,6.35c0,4.009,4.9,5.45,6.34,5.945c0.988,0.315,4.002,1.216,4.182,3.783
	c0.135,2.882-1.798,4.054-3.236,4.233c-1.305,0.136-2.564-1.036-3.418-1.981c-1.528-1.622-2.967-4.684-2.967-6.08
	c0-0.315,0-0.766,0-0.766h-0.944v9.728h0.899c0,0,0-0.855,0.314-1.126c0.225-0.225,0.629-0.271,0.944-0.271
	c0.944,0,3.013,1.307,5.171,1.307c2.967,0,6.385-2.478,6.385-6.755C28.199,793.88,23.39,793.159,21.007,792.079 M36.653,799.015
	c0,0.676-0.046,1.306-0.224,1.846c-0.405,1.172-0.945,2.117-2.158,2.117c-1.619,0-2.294-1.035-2.248-3.287
	c0.091-3.828,2.473-3.648,4.63-3.648V799.015z M52.795,785.684c6.608-1.171,11.96,3.197,11.96,8.782
	c0,6.801-5.306,9.773-7.329,9.773c-0.63,0-1.35,0-1.754,0c-0.047,0-0.092-0.045-0.092-0.091c0-1.081,0-9.503,0-10.088
	c0-1.216-1.078-4.324-4.451-4.324c-2.383,0-3.281,1.937-3.73,2.388c0-0.496,0-1.621,0-1.621h-6.43v0.494h2.428v13.151
	c0,0.045-0.045,0.135-0.09,0.135h-1.439c-1.17-0.18-1.26-1.351-1.26-1.801v-9.593c0-1.082-0.314-1.668-1.305-2.162
	c-1.348-0.721-2.922-0.991-4.451-0.991c-2.112,0-5.754,0.721-5.754,3.468c0,1.127,0.854,1.667,1.799,1.667
	c0.81,0,1.664-0.631,1.664-1.577c0-0.675-0.271-1.441-0.449-1.711c-0.54-0.676,1.348-1.126,2.652-1.126
	c0.584,0,1.888,0.36,1.888,1.307v3.513c-3.101-0.181-8.227-0.135-8.272,4.999c0,3.333,2.563,4.504,4.227,4.504
	c1.933,0,2.787-0.991,4.046-2.567c0.36,2.792,3.462,2.567,3.103,2.567c-0.18,0,9.262,0,9.262,0v-0.54h-1.484
	c-0.09,0-0.134-0.045-0.134-0.091c0-0.945,0-7.701,0-8.287c0-0.766,0.675-5.18,2.741-5.18c0.945,0,1.395,1.171,1.395,1.847
	c0,0.631,0,10.448,0,11.62c0,0.045-0.092,0.091-0.135,0.091h-1.664v0.54c0,0,9.173,0,10.072,0c3.596,0,9.576-3.604,9.576-10.404
	c0-7.565-8.678-12.521-16.59-8.691H52.795z M72.442,789.062c1.17,0,2.112-0.945,2.112-2.117c0-1.217-0.943-2.162-2.112-2.162
	s-2.158,0.945-2.158,2.162C70.284,788.116,71.273,789.062,72.442,789.062z M82.064,795.771c-2.069-0.63-3.867-1.171-3.867-2.973
	c0-0.72,0.674-2.251,2.203-2.251c1.754,0,4.047,2.837,4.182,5.224c0.494,0,0.81,0,0.81,0v-6.215c0,0-0.18,0-0.81,0
	c-0.359,2.792-2.203,0.36-4.092,0.36c-1.933,0-4.675,1.801-4.675,4.684c0,3.243,2.068,4.099,3.731,4.55
	c1.077,0.27,4.226,0.765,4.226,3.106c0,1.44-0.675,2.522-2.159,2.522c-2.293,0-4.9-4.368-4.9-5.81c0-0.271,0-0.45,0-0.45h-0.81
	v5.629c0,0.045-0.047,0.135-0.091,0.135l-1.26-0.044c-0.09,0-0.135-0.045-0.135-0.091v-13.69l-5.62,0.045v0.494h1.619v13.151
	c0,0.045-0.045,0.091-0.135,0.091H68.08v0.54h7.823v1.035h0.764c0,0,0.092-1.575,1.079-1.575c1.259,0,2.383,1.171,3.822,1.171
	c2.517,0,5.035-2.612,5.035-4.909c0-2.792-1.888-3.964-4.541-4.729H82.064z M102.385,804.283v0.496h-7.282v-0.54h1.259
	c0.046,0,0.089,0,0.046-0.091c-0.495-0.766-4.047-6.261-4.137-6.396c-0.091-0.18-0.315-0.45-0.72,0c0,0.27,0,5.585,0,6.396
	c0,0.091,0.047,0.135,0.136,0.135h2.472v0.496h-8.902v-0.54l2.159,0.045c0.09,0,0.135-0.09,0.135-0.136v-18.78h-2.428v-0.496h6.429
	v11.755c0,0,2.429-2.747,3.103-3.559c0.315-0.405,0.944-2.071-0.225-2.071c-0.136,0-0.584,0-0.584,0v-0.494l5.891-0.045v0.54
	c0,0-0.63,0-0.989,0c-0.676,0-1.754,0.136-4.183,3.423c0.091,0.181,5.35,8.242,5.485,8.513c0.18,0.225,0.989,1.306,1.618,1.306
	c0.271,0,0.72,0.045,0.72,0.045L102.385,804.283z M129.858,788.386l-3.956,13.331H104.14l3.328-10.089l6.294-6.621l-4.946,9.954
	l12.318-10.044l-8.543,12.521l15.467-10.449l-11.6,13.512l9.576-3.468l-3.911,4.504h3.643l4.9-16.665H109.31l-5.576,17.16h4.631
	l-1.259,2.837h22.165l4.901-16.483H129.858z M133.05,785.188c0.225,0,0.404,0,0.404-0.271c0-0.18-0.18-0.225-0.359-0.225h-0.359
	v0.496H133.05L133.05,785.188z M132.735,786.134h-0.224v-1.666h0.629c0.358,0,0.583,0.18,0.583,0.495c0,0.271-0.18,0.405-0.449,0.45
	l0.496,0.721h-0.315l-0.404-0.721h-0.315V786.134L132.735,786.134z M133.05,786.494c0.674,0,1.169-0.495,1.169-1.171
	s-0.495-1.216-1.169-1.216c-0.63,0-1.17,0.54-1.17,1.216S132.42,786.494,133.05,786.494z M131.611,785.323
	c0-0.855,0.675-1.441,1.439-1.441s1.438,0.586,1.438,1.441c0,0.811-0.674,1.396-1.438,1.396S131.611,786.134,131.611,785.323z"/>
</svg>
