<?xml version="1.0" encoding="utf-8"?>
<!-- Generator: Adobe Illustrator 16.0.0, SVG Export Plug-In . SVG Version: 6.00 Build 0)  -->
<!DOCTYPE svg PUBLIC "-//W3C//DTD SVG 1.1//EN" "http://www.w3.org/Graphics/SVG/1.1/DTD/svg11.dtd">
<svg version="1.1"
	 id="svg2" xmlns:dc="http://purl.org/dc/elements/1.1/" xmlns:cc="http://creativecommons.org/ns#" xmlns:rdf="http://www.w3.org/1999/02/22-rdf-syntax-ns#" xmlns:svg="http://www.w3.org/2000/svg" xmlns:sodipodi="http://sodipodi.sourceforge.net/DTD/sodipodi-0.dtd" xmlns:inkscape="http://www.inkscape.org/namespaces/inkscape" sodipodi:docname="Intel Logo.svg" inkscape:version="0.91 r13725"
	 xmlns="http://www.w3.org/2000/svg" xmlns:xlink="http://www.w3.org/1999/xlink" x="0px" y="0px" width="151.443px" height="100px"
	 viewBox="0 868.354 151.443 100" enable-background="new 0 868.354 151.443 100" xml:space="preserve">
<path fill="#404040" d="M17.13,923.03c0,1.651,1.284,2.291,2.744,2.291c0.955,0,2.414-0.274,2.414-1.545
	c0-1.336-1.858-1.562-3.682-2.048c-1.842-0.488-3.701-1.199-3.701-3.527c0-2.534,2.396-3.75,4.639-3.75
	c2.588,0,4.967,1.129,4.967,3.993h-2.639c-0.088-1.493-1.148-1.876-2.451-1.876c-0.868,0-1.875,0.365-1.875,1.406
	c0,0.957,0.591,1.08,3.699,1.879c0.904,0.226,3.683,0.797,3.683,3.611c0,2.272-1.788,3.978-5.157,3.978
	c-2.746,0-5.314-1.354-5.281-4.412H17.13L17.13,923.03z"/>
<path fill="#404040" d="M28.093,923.256c0.068,1.564,0.834,2.274,2.205,2.274c0.99,0,1.789-0.605,1.945-1.161h2.172
	c-0.695,2.117-2.172,3.021-4.203,3.021c-2.832,0-4.586-1.945-4.586-4.726c0-2.694,1.857-4.74,4.586-4.74
	c3.057,0,4.532,2.569,4.359,5.33L28.093,923.256L28.093,923.256L28.093,923.256z M32.103,921.693c-0.226-1.25-0.765-1.91-1.962-1.91
	c-1.564,0-2.016,1.216-2.05,1.91H32.103L32.103,921.693z"/>
<path fill="#404040" d="M35.491,920.928c0.139-2.311,2.206-3.003,4.221-3.003c1.789,0,3.943,0.4,3.943,2.55v4.674
	c0,0.816,0.086,1.634,0.312,1.995h-2.502c-0.088-0.275-0.155-0.571-0.174-0.865c-0.781,0.816-1.928,1.111-3.023,1.111
	c-1.701,0-3.057-0.852-3.057-2.693c0-2.032,1.528-2.519,3.057-2.729c1.513-0.223,2.918-0.17,2.918-1.179
	c0-1.059-0.729-1.214-1.598-1.214c-0.938,0-1.547,0.381-1.633,1.354H35.491L35.491,920.928L35.491,920.928z M41.187,922.752
	c-0.417,0.364-1.286,0.383-2.048,0.521c-0.766,0.155-1.461,0.417-1.461,1.319c0,0.922,0.713,1.145,1.512,1.145
	c1.93,0,1.998-1.525,1.998-2.063L41.187,922.752L41.187,922.752z"/>
<path fill="#404040" d="M53.632,926.573c0,1.476-0.521,3.976-4.656,3.976c-1.772,0-3.838-0.833-3.959-2.881h2.449
	c0.225,0.921,0.972,1.232,1.841,1.232c1.372,0,1.997-0.938,1.979-2.222v-1.181h-0.035c-0.539,0.937-1.615,1.389-2.692,1.389
	c-2.692,0-3.838-2.049-3.838-4.518c0-2.327,1.337-4.444,3.856-4.444c1.18,0,2.083,0.4,2.674,1.441h0.033v-1.198h2.347
	L53.632,926.573L53.632,926.573L53.632,926.573z M51.284,922.543c0-1.459-0.502-2.76-2.1-2.76c-1.389,0-1.998,1.216-1.998,2.553
	c0,1.287,0.485,2.693,1.998,2.693C50.591,925.029,51.284,923.828,51.284,922.543L51.284,922.543z"/>
<path fill="#404040" d="M55.07,920.928c0.14-2.311,2.208-3.003,4.222-3.003c1.789,0,3.941,0.4,3.941,2.55v4.674
	c0,0.816,0.089,1.634,0.312,1.995h-2.499c-0.087-0.275-0.155-0.571-0.175-0.865c-0.781,0.816-1.928,1.111-3.021,1.111
	c-1.703,0-3.058-0.852-3.058-2.693c0-2.032,1.529-2.519,3.058-2.729c1.512-0.223,2.917-0.17,2.917-1.179
	c0-1.059-0.729-1.214-1.597-1.214c-0.938,0-1.545,0.381-1.633,1.354H55.07L55.07,920.928L55.07,920.928z M60.768,922.752
	c-0.416,0.364-1.286,0.383-2.048,0.521c-0.765,0.155-1.458,0.417-1.458,1.319c0,0.922,0.711,1.145,1.51,1.145
	c1.928,0,1.996-1.525,1.996-2.063V922.752L60.768,922.752z"/>
<path fill="#404040" d="M67.84,918.168h1.806v1.65H67.84v4.446c0,0.833,0.206,1.042,1.042,1.042c0.26,0,0.502-0.018,0.764-0.07
	v1.928c-0.417,0.069-0.956,0.087-1.443,0.087c-1.511,0-2.83-0.351-2.83-2.137v-5.296h-1.494v-1.65h1.494v-2.693h2.468V918.168
	L67.84,918.168z"/>
<path fill="#404040" d="M72.425,923.256c0.067,1.564,0.832,2.274,2.203,2.274c0.99,0,1.789-0.605,1.945-1.161h2.172
	c-0.695,2.117-2.172,3.021-4.201,3.021c-2.834,0-4.588-1.945-4.588-4.726c0-2.694,1.859-4.74,4.588-4.74
	c3.055,0,4.531,2.569,4.357,5.33L72.425,923.256L72.425,923.256L72.425,923.256z M76.436,921.693c-0.227-1.25-0.766-1.91-1.965-1.91
	c-1.562,0-2.014,1.216-2.047,1.91H76.436L76.436,921.693z"/>
<path fill="#404040" d="M106.075,905.051c-4.391,1.176-7.456,5.171-7.456,9.717c0,5.546,4.51,10.06,10.058,10.06
	c3.89,0,7.469-2.281,9.118-5.807c0.278-0.598,0.019-1.312-0.58-1.591c-0.597-0.281-1.311-0.022-1.588,0.576
	c-1.256,2.689-3.983,4.428-6.949,4.428c-4.227,0-7.665-3.438-7.665-7.666c0-3.465,2.336-6.512,5.682-7.404
	c0.639-0.172,1.016-0.826,0.846-1.465C107.368,905.26,106.712,904.88,106.075,905.051L106.075,905.051z"/>
<path fill="#404040" d="M94.679,914.766c0,7.719,6.278,13.998,13.997,13.998c2.887,0,5.664-0.877,8.025-2.532
	c0.544-0.381,0.675-1.127,0.294-1.667c-0.379-0.542-1.124-0.671-1.665-0.294c-1.957,1.376-4.259,2.102-6.654,2.102
	c-6.399,0-11.605-5.207-11.605-11.606c0-6.398,5.206-11.605,11.605-11.605c1.014,0,2.024,0.135,3.005,0.396
	c0.638,0.171,1.295-0.209,1.464-0.848c0.171-0.639-0.208-1.293-0.847-1.465c-1.181-0.315-2.401-0.476-3.622-0.476
	C100.958,900.77,94.679,907.048,94.679,914.766L94.679,914.766z"/>
<path fill="#404040" d="M86.802,914.768c0,8.458,4.956,16.243,12.629,19.825c0.6,0.278,1.311,0.021,1.59-0.576
	c0.279-0.6,0.021-1.312-0.578-1.592c-6.832-3.192-11.248-10.124-11.248-17.657c0-10.742,8.739-19.484,19.481-19.484
	c8.808,0,16.548,5.938,18.819,14.44c0.172,0.64,0.827,1.019,1.464,0.847c0.642-0.169,1.018-0.824,0.848-1.465
	c-2.551-9.545-11.242-16.215-21.131-16.215C96.616,892.891,86.802,902.705,86.802,914.768L86.802,914.768z"/>
<path fill="#404040" d="M90.74,914.766c0,9.893,8.047,17.938,17.937,17.938c0.493,0,1.003-0.023,1.562-0.071
	c0.658-0.057,1.146-0.638,1.088-1.294c-0.055-0.66-0.636-1.146-1.293-1.09c-0.489,0.041-0.935,0.063-1.357,0.063
	c-8.569,0-15.544-6.975-15.544-15.546c0-8.569,6.975-15.544,15.544-15.544c4.151,0,8.056,1.618,10.991,4.556
	c0.466,0.466,1.226,0.466,1.693,0c0.467-0.469,0.467-1.227,0-1.693c-3.388-3.389-7.893-5.252-12.685-5.252
	C98.787,896.833,90.74,904.878,90.74,914.766L90.74,914.766z"/>
<path fill="#404040" d="M134.489,914.766c0-14.232-11.578-25.812-25.812-25.812c-14.233,0-25.814,11.579-25.814,25.812
	c0,5.334,1.614,10.457,4.67,14.808c0.38,0.543,1.125,0.673,1.665,0.293c0.541-0.381,0.672-1.123,0.294-1.667
	c-2.771-3.947-4.235-8.592-4.235-13.434c0-12.913,10.507-23.42,23.421-23.42s23.42,10.507,23.422,23.42
	c0,2.169-0.302,4.337-0.911,6.457c-0.184,0.635,0.185,1.297,0.817,1.479c0.636,0.185,1.299-0.182,1.481-0.817
	C134.16,919.547,134.489,917.154,134.489,914.766L134.489,914.766z"/>
</svg>
