<svg version="1.1" id="Layer_1"
	 xmlns="http://www.w3.org/2000/svg"
	 xmlns:xlink="http://www.w3.org/1999/xlink" x="0px" y="0px"
	 width="960px" height="560px" viewBox="0 0 960 560" enable-background="new 0 0 960 560" xml:space="preserve">
<g id="Layer_1_1_" display="none">
	<g id="Layer_2" display="inline">
	</g>
	
		<image display="inline" overflow="visible" enable-background="new    " width="450" height="470" xlink:href="stock-vector-flat-line-icons-for-furniture-icons-vector-illustration-210381013.jpg"  transform="matrix(0.5497 0 0 0.5497 -93.25 301.0977)">
	</image>
</g>
<polygon fill="#9E9792" points="362.384,168.605 160.441,301.235 200.049,301.235 200.049,323.764 23.815,398.255 68.873,398.16 
	68.509,500.361 453.68,500.361 454.043,300.781 492.561,300.872 "/>
<polygon fill="#F3CC83" points="362.172,179.87 186.968,293.241 208.043,293.241 208.043,301.235 445.686,301.235 445.686,293.968 
	472.938,293.968 "/>
<rect x="208.043" y="309.956" fill="#70877B" width="147.527" height="88.662"/>
<rect x="363.564" y="309.956" fill="#9EDAF0" width="82.122" height="88.662"/>
<polygon fill="#F8DCE6" points="200.049,398.618 77.23,398.981 77.23,388.443 68.873,388.443 200.049,333.394 "/>
<rect x="208.043" y="407.339" fill="#F8F2E6" width="111.19" height="85.028"/>
<rect x="76.503" y="407.339" fill="#E9E1CE" width="123.545" height="85.028"/>
<rect x="327.955" y="407.339" fill="#F1E5B7" width="117.731" height="85.028"/>
<g>
	<path fill="#B9B9B9" d="M265.13,489.81c0,0.894-0.515,2.194-1.24,2.194h-21.665c-0.726,0-1.479-1.3-1.479-2.194v-27.222
		c0-0.894,0.753-1.349,1.479-1.349h21.665c0.725,0,1.24,0.456,1.24,1.349V489.81z"/>
	<path fill="#FFFFFF" d="M248.158,475.938c-0.368-1.765-1.167-1.397-1.563-1.293v-1.015h-4.759v7.137h4.758v-2.56
		C248.18,477.248,248.158,475.938,248.158,475.938z M246.594,477.289v-2.08c0.792-0.089,0.881,0.6,0.881,0.6
		C247.349,476.624,246.991,477.124,246.594,477.289z"/>
	<path fill="#FFFFFF" d="M251.649,473.927v1.982h-0.396v-1.982h-0.262h-0.529v1.982h-0.595v-1.982h-0.396v1.772
		c0,0,0.624,2.194,1.174,2.194l0.045,2.774h0.302h0.303l-0.089-2.774c0.553,0,1.041-2.194,1.041-2.194v-1.772H251.649z"/>
	<path fill="#FFFFFF" d="M256.592,476.214c0-2.53-1.227-2.568-1.495-2.548c-0.281-0.021-1.565,0.016-1.565,2.548
		c0,0-0.197,1.494,1.192,2.015v2.59l0.326-0.075l0.266,0.075v-2.59C256.705,477.708,256.592,476.214,256.592,476.214z"/>
	<path fill="#F9CCD5" d="M244.612,464.312c0,0.654-0.533,1.189-1.191,1.189l0,0c-0.655,0-1.189-0.533-1.189-1.189v-0.596
		c0-0.656,0.533-1.189,1.189-1.189l0,0c0.657,0,1.191,0.531,1.191,1.189V464.312z"/>
	<path fill="#F9CCD5" d="M248.18,464.312c0,0.654-0.531,1.189-1.189,1.189l0,0c-0.657,0-1.189-0.533-1.189-1.189v-0.596
		c0-0.656,0.532-1.189,1.189-1.189l0,0c0.657,0,1.189,0.531,1.189,1.189V464.312z"/>
	<path fill="#F9CCD5" d="M263.049,464.312c0,0.654-0.533,1.189-1.192,1.189l0,0c-0.655,0-1.189-0.533-1.189-1.189v-0.596
		c0-0.656,0.532-1.189,1.189-1.189l0,0c0.657,0,1.192,0.531,1.192,1.189V464.312z"/>
	<path fill="#FFFFFF" d="M264.039,473.715c0,0-6.437-0.481-6.437,7.25h6.437V473.715z"/>
	<rect x="241.737" y="483.641" fill="#FFFFFF" width="22.203" height="0.396"/>
	<rect x="241.737" y="482.253" fill="#FFFFFF" width="22.203" height="0.396"/>
	<rect x="241.737" y="485.028" fill="#FFFFFF" width="22.203" height="0.397"/>
	<rect x="241.737" y="486.417" fill="#FFFFFF" width="22.203" height="0.396"/>
	<rect x="244.116" y="481.262" fill="#FFFFFF" width="0.595" height="6.146"/>
	<rect x="247.684" y="481.262" fill="#FFFFFF" width="0.595" height="6.146"/>
	<rect x="250.659" y="477.862" fill="#FFFFFF" width="0.595" height="9.545"/>
	<rect x="254.623" y="477.197" fill="#FFFFFF" width="0.595" height="10.21"/>
	<rect x="254.623" y="481.262" fill="#FFFFFF" width="0.595" height="6.146"/>
	<rect x="257.597" y="481.262" fill="#FFFFFF" width="0.794" height="6.146"/>
	<rect x="260.967" y="481.262" fill="#FFFFFF" width="0.793" height="6.146"/>
	<rect x="241.737" y="466.988" fill="#F9CCD5" width="22.203" height="5.551"/>
</g>
<rect x="249.467" y="368.095" fill="#654A3D" width="65.406" height="13.809"/>
<path fill="#BFB1B8" d="M277.81,378.027c0,2.141-1.735,3.876-3.875,3.876h-14.778c-2.14,0-3.875-1.735-3.875-3.876v-0.243
	c0-2.14,1.735-3.875,3.875-3.875h14.778c2.14,0,3.875,1.735,3.875,3.875V378.027z"/>
<path fill="#BFB1B8" d="M309.06,378.027c0,2.141-1.735,3.876-3.876,3.876h-14.777c-2.141,0-3.876-1.735-3.876-3.876v-0.243
	c0-2.14,1.735-3.875,3.876-3.875h14.777c2.141,0,3.876,1.735,3.876,3.875V378.027z"/>
<path fill="#D8462C" d="M316.809,381.903h-35.002h-34.883c0,0-2.907,10.174-1.817,10.174h36.7h36.819
	C319.716,392.077,316.809,381.903,316.809,381.903z"/>
<polygon fill="#C2985F" points="282.375,392.077 250.194,392.077 250.194,394.258 282.375,394.258 314.873,394.258 314.873,392.077 
	"/>
<polygon fill="#F2F1F0" points="281.443,381.903 248.014,381.903 248.014,392.077 281.443,392.077 316.327,392.077 316.327,381.903 
	"/>
<rect x="155.718" y="368.095" fill="#E93090" width="37.791" height="13.081"/>
<path fill="#FCFAFC" d="M185.514,378.018c0,1.742-1.679,3.158-3.638,3.158H166.27c-1.959,0-3.284-1.414-3.284-3.158v-0.226
	c0-1.742,1.325-3.158,3.284-3.158h15.606c1.959,0,3.638,1.414,3.638,3.158V378.018z"/>
<path fill="#D8462C" d="M194.358,381.567H174.25h-20.349c0,0-2.453,10.901-1.453,10.901h21.802h21.562
	C196.811,392.469,194.358,381.567,194.358,381.567z"/>
<rect x="155.718" y="392.077" fill="#C2985F" width="37.791" height="2.181"/>
<path d="M259.936,449.853h-14.61c-0.733,0-1.31,0.376-1.31,1.11v8.3c0,0.734,0.576,1.491,1.31,1.491h0.028
	c-0.017,0,0.116-0.073,0.116-0.024v0.056c0,0.198,0.016,0.695,0.216,0.695h1.604c0.199,0-0.367-0.497-0.367-0.695v-0.056
	c0-0.047,0.717,0.024,0.699,0.024h10.13c-0.018,0,0.074-0.073,0.074-0.024v0.056c0,0.198,0.059,0.695,0.257,0.695h1.604
	c0.198,0,0.319-0.497,0.319-0.695v-0.056c0-0.048,0.105-0.099,0.088-0.141c0.696-0.044,1.365-0.62,1.365-1.324v-8.3
	C261.458,450.229,260.669,449.853,259.936,449.853z"/>
<path fill="#FFFFFF" d="M256.371,458.368c0,0.395,0.15,0.933-0.307,0.933h-9.8c-0.457,0-0.795-0.538-0.795-0.933v-6.912
	c0-0.396,0.338-0.877,0.795-0.877h9.8c0.457,0,0.307,0.481,0.307,0.877V458.368z"/>
<path d="M255.644,457.343v-0.281c0-0.074,0.276-0.205,0.276-0.354s-0.276-0.279-0.276-0.353v-2.655c0-0.075,0.276-0.206,0.276-0.354
	c0-0.149-0.276-0.279-0.276-0.354v-0.261c0-0.152-0.149-0.274-0.363-0.274c-0.213,0-0.363,0.122-0.363,0.274v0.349
	c0,0.072-0.139,0.165-0.139,0.266c0,0.103,0.139,0.194,0.139,0.266v2.832c0,0.072-0.139,0.164-0.139,0.264
	c0,0.104,0.139,0.197,0.139,0.268v0.369c0,0.15,0.15,0.273,0.363,0.273C255.495,457.616,255.644,457.494,255.644,457.343z"/>
<circle fill="#FFFFFF" cx="258.921" cy="454.338" r="1.107"/>
<rect x="257.852" y="451.094" fill="#FFFFFF" width="0.922" height="1.077"/>
<rect x="258.927" y="451.094" fill="#FFFFFF" width="1.077" height="1.077"/>
<rect x="208.406" y="461.48" fill="#CCB4B4" width="31.977" height="7.994"/>
<g>
	<path fill="#737373" d="M222.941,461.48h2.907v-6.4c0,0-0.516-1.939,1.948-1.939c0,0,1.686,0.051,1.686,1.781v1.415l2.106,0.053
		c0,0,1.022-5.243-4.324-5.243c0,0-4.323-0.42-4.323,3.67L222.941,461.48L222.941,461.48z"/>
	<polygon fill="#737373" points="221.633,459.301 220.374,459.301 219.116,459.301 218.581,459.643 218.581,461.48 220.374,461.48 
		221.487,461.48 221.487,459.643 	"/>
	<polygon fill="#737373" points="229.812,459.301 228.553,459.301 227.296,459.301 226.575,459.643 226.575,461.48 228.553,461.48 
		229.481,461.48 229.481,459.643 	"/>
</g>
<rect x="156.808" y="394.621" fill="#FFFFFF" width="1.453" height="3.634"/>
<rect x="190.964" y="394.621" fill="#FFFFFF" width="1.454" height="3.634"/>
<rect x="208.406" y="469.475" fill="#9C6041" width="15.262" height="22.529"/>
<rect x="225.121" y="469.475" fill="#9C6041" width="15.262" height="22.529"/>
<rect x="223.668" y="469.736" fill="#FFFFFF" width="1.453" height="22.165"/>
<rect x="265.13" y="452.554" fill="#B8CFBF" width="29.07" height="39.517"/>
<polygon fill="#7B9C84" points="266.182,453.85 266.182,456.03 269.815,456.03 269.815,454.94 280.717,454.85 280.717,453.85 "/>
<g>
	<path fill="#CEB7B4" d="M304.578,455.296c-0.109-0.549-1.133-1.267-1.133-1.267l-0.059-0.035l-4.977-0.004l-0.197,0.039
		c0,0-0.883,0.718-0.991,1.267l0.399-0.056c0,0-0.375,0.688,0,2.205c0.377,1.517,1.418,3.489,1.418,3.489s0.21,0.277,1.664,0.337
		v0.015c0,0,0.281-0.002,0.364-0.006c0.082,0.003-0.364,0.006,0.363,0.006v-0.015c0.727-0.06,1.508-0.337,1.508-0.337
		s0.938-1.973,1.312-3.489c0.375-1.517-0.036-2.205-0.036-2.205L304.578,455.296z"/>
	<rect x="298.181" y="453.373" fill="#FFFFFF" width="5.223" height="0.727"/>
	<path fill="#CB6D55" d="M303.444,453.736c0.438-0.727-0.025-0.727-0.025-0.727h-2.241h-0.6h-2.2c0,0-0.602,0-0.166,0.727H303.444z"
		/>
</g>
<g>
	<path fill="#EEDEC7" d="M316.114,453.448c-0.142-0.719-1.483-1.658-1.483-1.658l-0.076-0.047l-6.511-0.004l-0.259,0.051
		c0,0-1.155,0.939-1.297,1.658l0.523-0.076c0,0-0.491,0.901,0,2.888c0.493,1.983,1.858,4.565,1.858,4.565s0.275,0.362,2.177,0.441
		v0.015c0,0,0.369-0.002,0.474-0.005c0.108,0.003-0.474,0.005,0.475,0.005v-0.015c0.951-0.079,1.974-0.441,1.974-0.441
		s1.227-2.582,1.717-4.565c0.49-1.984-0.046-2.888-0.046-2.888L316.114,453.448z"/>
	<rect x="307.744" y="450.931" fill="#FFFFFF" width="6.833" height="0.951"/>
	<path fill="#CB6D55" d="M314.631,451.406c0.575-0.951-0.033-0.951-0.033-0.951h-2.933h-0.784h-2.879c0,0-0.788,0-0.219,0.951
		H314.631z"/>
</g>
<path fill="#FFFFFF" d="M221.56,480.784c0,0.377-0.305,0.682-0.682,0.682h-0.091c-0.378,0-0.682-0.305-0.682-0.682v-3.725
	c0-0.378,0.306-0.682,0.682-0.682h0.091c0.376,0,0.682,0.306,0.682,0.682V480.784z"/>
<path fill="#FFFFFF" d="M228.03,480.784c0,0.377-0.305,0.682-0.681,0.682h-0.091c-0.378,0-0.682-0.305-0.682-0.682v-3.725
	c0-0.378,0.305-0.682,0.682-0.682h0.091c0.376,0,0.681,0.306,0.681,0.682V480.784z"/>
<rect x="265.13" y="451.633" fill="#FFFFFF" width="29.07" height="0.921"/>
<path fill="#B8CFBF" d="M290.452,434.349h-11.311h-10.295c0,0-3.748,1.211-3.748,5.935l0.031,11.35h14.012h15.027l0.03-11.35
	C294.2,435.56,290.452,434.349,290.452,434.349z"/>
<rect x="294.2" y="461.283" fill="#6B6B6B" width="24.669" height="2.378"/>
<rect x="294.2" y="463.66" fill="#76392D" width="24.669" height="28.344"/>
<path fill="#6B6B6B" d="M346.851,285.247v12.233v3.755h6.296c0,0-2.903-3.755,30.949-3.755s30.949,3.755,30.949,3.755h6.296v-3.755
	v-12.233H346.851z"/>
<rect x="349.637" y="287.791" fill="#FFFFFF" width="68.797" height="5.813"/>
<circle fill="#0F3452" cx="356.782" cy="290.698" r="1.211"/>
<circle fill="#0F3452" cx="410.44" cy="290.698" r="1.211"/>
<path fill="#AAD5C8" d="M414.982,280.281h-30.947h-30.887c0,0-3.512,0.727-3.512,4.966h34.398h0.061h34.398
	C418.494,281.007,414.982,280.281,414.982,280.281z"/>
<path fill="#AAD5C8" d="M414.982,254.846h-30.947h-30.887c0,0-3.512,0.727-3.512,4.966h34.398h0.061h34.398
	C418.494,255.571,414.982,254.846,414.982,254.846z"/>
<path fill="#76392D" d="M419.887,251.332c-0.802,0-1.453,0.651-1.453,1.454v0.727h-54.87h-2.18v2.18v1.696h-11.748v-4.603
	c0-0.803-0.624-1.454-1.393-1.454c-0.77,0-1.393,0.651-1.393,1.454v4.603v7.389v8.721v14.293v13.444h2.786v-13.444v-5.33h11.748
	v2.786h2.18v-20.47h54.87v8.721v14.293v13.444h2.907v-13.444v-14.293v-8.721v-7.389v-4.603
	C421.341,251.983,420.69,251.332,419.887,251.332z M361.384,280.281h-11.748v-4.603h11.748V280.281z M361.384,273.498h-11.748
	v-4.119h11.748V273.498z M361.384,267.2h-11.748v-2.423h11.748V267.2z M363.564,257.389v-1.696h54.87v1.696H363.564z"/>
<rect x="296.16" y="465.023" fill="#A37750" width="20.984" height="7.289"/>
<rect x="296.16" y="473.178" fill="#A37750" width="20.984" height="7.289"/>
<rect x="296.16" y="481.717" fill="#A37750" width="20.984" height="7.289"/>
<rect x="301.429" y="467.931" fill="#FFFFFF" width="10.538" height="1.453"/>
<rect x="301.429" y="476.096" fill="#FFFFFF" width="10.538" height="1.453"/>
<rect x="301.429" y="484.635" fill="#FFFFFF" width="10.538" height="1.453"/>
<rect x="211.586" y="411.154" fill="#D6C0A0" width="15.718" height="26.616"/>
<rect x="227.304" y="411.154" fill="#D6C0A0" width="15.718" height="26.616"/>
<rect x="243.073" y="411.154" fill="#D6C0A0" width="15.718" height="26.616"/>
<rect x="258.921" y="411.154" fill="#D6C0A0" width="27.973" height="17.896"/>
<rect x="286.806" y="411.154" fill="#D6C0A0" width="29.309" height="17.896"/>
<path fill="#C17CBF" d="M192.244,455.031c0-1.012-12.954-0.861-12.954-0.861s-12.953-0.15-12.953,0.861c0,0-0.652,0.272-0.652,3.36
	v3.089h13.605h13.606v-3.089C192.897,455.304,192.244,455.031,192.244,455.031z"/>
<rect x="165.694" y="463.115" fill="#C17CBF" width="27.192" height="21.832"/>
<path fill="#C17CBF" d="M179.291,484.947h-0.001h-13.595v6.207c0,0,0.62,1.896,2.917,1.896h10.678h0.001h10.678
	c2.297,0,2.917-1.896,2.917-1.896v-6.207H179.291L179.291,484.947z"/>
<rect x="165.694" y="461.48" width="27.192" height="1.635"/>
<rect x="165.694" y="484.947" fill="#B7ABAB" width="27.192" height="1.151"/>
<path fill="#B7ABAB" d="M189.016,474.031h-1.049c-0.364-4.457-4.089-7.963-8.64-7.963c-4.792,0-8.676,3.886-8.676,8.676
	s3.884,8.677,8.676,8.677c4.411,0,8.043-3.294,8.595-7.556h1.094V474.031z"/>
<path fill="#FFFFFF" d="M186.315,474.665c0,3.883-3.146,7.025-7.025,7.025l0,0c-3.879,0-7.025-3.143-7.025-7.025l0,0
	c0-3.879,3.146-7.024,7.025-7.024l0,0C183.169,467.641,186.315,470.786,186.315,474.665L186.315,474.665z"/>
<path fill="#B7ABAB" d="M176.071,470.065c0,0-0.31-0.47-1.817,1.408c0,0-1.09,1.748-0.545,2.271c0,0,0.205,0.182,0.363-0.522
	c0,0,0.28-1.135,0.742-1.726c0,0,0.732-0.709,1.03-0.886C175.844,470.61,176.197,470.395,176.071,470.065z"/>
<path fill="#7FD5F4" d="M175.686,458.597c0,0.988-0.803,1.794-1.794,1.794h-4.133c-0.991,0-1.794-0.804-1.794-1.794l0,0
	c0-0.991,0.803-1.794,1.794-1.794h4.133C174.883,456.803,175.686,457.605,175.686,458.597L175.686,458.597z"/>
<circle fill="#FFFFFF" cx="178.002" cy="458.483" r="0.954"/>
<circle fill="#FFFFFF" cx="180.546" cy="458.483" r="0.954"/>
<circle fill="#FFFFFF" cx="183.044" cy="458.483" r="0.954"/>
<circle fill="#FFFFFF" cx="187.518" cy="458.369" r="1.794"/>
<polygon fill="#7C6049" points="95.77,463.721 93.953,463.721 93.953,490.791 95.77,490.791 95.77,485.341 104.491,485.341 
	105.399,490.791 106.489,490.791 106.489,479.527 96.678,479.346 "/>
<polygon fill="#7C6049" points="147.688,463.721 149.61,463.721 149.61,490.791 147.688,490.791 147.688,485.341 138.46,485.341 
	137.5,490.791 136.347,490.791 136.347,479.527 146.726,479.346 "/>
<path fill="#7C6049" d="M141.736,470.746c0,1.438-1.165,2.605-2.604,2.605h-35.004c-1.438,0-2.604-1.166-2.604-2.605l0,0
	c0-1.438,1.166-2.604,2.604-2.604h35.004C140.571,468.143,141.736,469.309,141.736,470.746L141.736,470.746z"/>
<rect x="113.393" y="473.352" fill="#FFFFFF" width="16.715" height="1.875"/>
<rect x="117.269" y="475.227" fill="#7C6049" width="8.902" height="15.201"/>
<rect x="113.393" y="489.944" fill="#7C6049" width="16.715" height="1.938"/>
<rect x="248.014" y="319.767" fill="#BCBCBC" stroke="#FCCC92" stroke-miterlimit="10" width="66.859" height="35.974"/>
<rect x="243.653" y="276.835" fill="#76392D" width="51.012" height="2.172"/>
<rect x="288.228" y="279.973" fill="#FFFFFF" width="1.69" height="21.725"/>
<rect x="266.342" y="279.973" fill="#FFFFFF" width="1.69" height="21.725"/>
<rect x="267.349" y="294.455" fill="#FFFFFF" width="21.724" height="1.69"/>
<path fill="#B1674D" d="M262.561,298.426c0,0.518-0.423,0.938-0.944,0.938h-12.354c-0.521,0-0.944-0.42-0.944-0.938v-17.515
	c0-0.519,0.423-0.938,0.944-0.938h12.354c0.522,0,0.944,0.42,0.944,0.938V298.426z"/>
<path fill="#F4A599" d="M253.818,261.548c0,0-0.697-2.361,0-2.897c0,0-0.483-1.448,1.126-0.643c0,0,0.965-0.377,2.681,1.341
	c0,0,1.877,0.16,3.326,2.199l-1.769,1.019c0,0,0.054,4.184-3.272,1.984l-1.481,1.118
	C254.428,265.669,252.758,262.607,253.818,261.548z"/>
<path fill="#BCBCBC" d="M253.543,260.181c0,0-0.316-0.833-2.515,0.643l-5.042,3.059c0,0-0.482,0.724,0.806,2.601l3.326,5.579
	c0,0,0.08,1.287,0.965,1.287c0,0,1.369-0.188,0.376-1.958l-3.701-6.249l4.559-3.003
	C252.315,262.138,253.911,261.469,253.543,260.181z"/>
<polygon fill="#BCBCBC" points="250.975,273.348 249.473,273.348 249.473,274.394 248.856,274.394 248.856,276.835 255.132,276.835 
	255.132,274.421 252.852,274.421 252.879,273.348 "/>
<rect x="249.747" y="281.447" fill="#76392D" width="11.258" height="5.257"/>
<rect x="249.747" y="288.904" fill="#76392D" width="11.258" height="9.172"/>
<path fill="#0F3452" d="M259.986,285.042c0,0.355-0.288,0.644-0.643,0.644l0,0c-0.356,0-0.644-0.288-0.644-0.644v-2.038
	c0-0.356,0.288-0.645,0.644-0.645l0,0c0.355,0,0.643,0.288,0.643,0.645V285.042z"/>
<path fill="#0F3452" d="M259.986,294.556c0,0.582-0.288,1.054-0.643,1.054l0,0c-0.356,0-0.644-0.472-0.644-1.054v-3.337
	c0-0.582,0.288-1.055,0.644-1.055l0,0c0.355,0,0.643,0.472,0.643,1.055V294.556z"/>
<ellipse transform="matrix(0.7071 -0.7071 0.7071 0.7071 -75.2759 372.0271)" fill="#113551" cx="411.466" cy="276.885" rx="7.873" ry="3.574"/>
<ellipse transform="matrix(0.7071 -0.7071 0.7071 0.7071 -55.616 363.9068)" fill="#113551" cx="411.466" cy="249.088" rx="7.873" ry="3.573"/>
<path fill="#E6D1B6" d="M237.775,393.682c0,1.407-1.142,2.548-2.548,2.548h-15.995c-1.407,0-2.548-1.141-2.548-2.548v-12.173
	c0-1.408,1.141-2.548,2.548-2.548h15.995c1.406,0,2.548,1.14,2.548,2.548V393.682z"/>
<path fill="#FBF5ED" d="M229.636,385.049c0,0.312-0.254,0.566-0.567,0.566h-3.254c-0.312,0-0.566-0.255-0.566-0.566l0,0
	c0-0.312,0.254-0.566,0.566-0.566h3.254C229.382,384.482,229.636,384.736,229.636,385.049L229.636,385.049z"/>
<path fill="#FBF5ED" d="M229.636,391.701c0,0.312-0.254,0.565-0.567,0.565h-3.254c-0.312,0-0.566-0.253-0.566-0.565l0,0
	c0-0.313,0.254-0.566,0.566-0.566h3.254C229.382,391.135,229.636,391.389,229.636,391.701L229.636,391.701z"/>
<rect x="219.232" y="396.229" fill="#B1A49E" width="1.486" height="1.983"/>
<rect x="233.529" y="396.229" fill="#B1A49E" width="1.486" height="1.983"/>
<path fill="#F4A599" d="M226.27,365.473c0,0-4.795-0.067-4.795,5.133h4.795h4.794C231.063,365.405,226.27,365.473,226.27,365.473z"
	/>
<rect x="226.27" y="370.604" fill="none" stroke="#113551" stroke-miterlimit="10" width="0.473" height="0.893"/>
<rect x="225.526" y="371.498" fill="#113551" width="1.925" height="5.37"/>
<rect x="222.336" y="376.867" fill="#113551" width="8.407" height="1.924"/>
<rect x="228.92" y="370.604" fill="none" stroke="#113551" stroke-miterlimit="10" width="0.304" height="2.718"/>
<circle fill="none" stroke="#113551" stroke-miterlimit="10" cx="229.071" cy="373.525" r="0.558"/>
<path fill="#E6D1B6" d="M347.591,393.682c0,1.407-1.14,2.548-2.548,2.548h-15.994c-1.407,0-2.548-1.141-2.548-2.548v-12.173
	c0-1.408,1.141-2.548,2.548-2.548h15.994c1.408,0,2.548,1.14,2.548,2.548V393.682z"/>
<path fill="#FBF5ED" d="M339.452,385.049c0,0.312-0.255,0.566-0.566,0.566h-3.254c-0.314,0-0.566-0.255-0.566-0.566l0,0
	c0-0.312,0.253-0.566,0.566-0.566h3.254C339.198,384.482,339.452,384.736,339.452,385.049L339.452,385.049z"/>
<path fill="#FBF5ED" d="M339.452,391.701c0,0.312-0.255,0.565-0.566,0.565h-3.254c-0.314,0-0.566-0.253-0.566-0.565l0,0
	c0-0.313,0.253-0.566,0.566-0.566h3.254C339.198,391.135,339.452,391.389,339.452,391.701L339.452,391.701z"/>
<rect x="329.049" y="396.229" fill="#B1A49E" width="1.485" height="1.983"/>
<rect x="343.344" y="396.229" fill="#B1A49E" width="1.486" height="1.983"/>
<g>
	<path fill="#F4A599" d="M336.085,365.473c0,0-4.795-0.067-4.795,5.133h4.795h4.795
		C340.879,365.405,336.085,365.473,336.085,365.473z"/>
	<rect x="336.085" y="370.604" fill="none" stroke="#113551" stroke-miterlimit="10" width="0.473" height="0.893"/>
	<rect x="335.342" y="371.498" fill="#113551" width="1.925" height="5.37"/>
	<rect x="332.152" y="376.867" fill="#113551" width="8.406" height="1.924"/>
	<rect x="338.736" y="370.604" fill="none" stroke="#113551" stroke-miterlimit="10" width="0.304" height="2.718"/>
	<circle fill="none" stroke="#113551" stroke-miterlimit="10" cx="338.888" cy="373.525" r="0.558"/>
</g>
<g>
	<path fill="#113551" d="M273.054,353.444c0,0.466-0.376,0.843-0.842,0.843h-12.45c-0.465,0-0.842-0.378-0.842-0.843v-22.653
		c0-0.466,0.377-0.842,0.842-0.842h12.45c0.466,0,0.842,0.377,0.842,0.842V353.444z"/>
	<path fill="#113551" d="M304.693,353.444c0,0.466-0.378,0.843-0.843,0.843h-12.449c-0.465,0-0.843-0.378-0.843-0.843v-22.653
		c0-0.466,0.378-0.842,0.843-0.842h12.449c0.466,0,0.843,0.377,0.843,0.842V353.444z"/>
	<circle fill="#FFFFFF" stroke="#000000" stroke-miterlimit="10" cx="265.987" cy="336.765" r="4.212"/>
	<circle fill="#FFFFFF" stroke="#000000" stroke-miterlimit="10" cx="265.987" cy="347.763" r="4.212"/>
	<circle fill="#FFFFFF" stroke="#000000" stroke-miterlimit="10" cx="297.626" cy="336.765" r="4.212"/>
	<circle fill="#FFFFFF" stroke="#000000" stroke-miterlimit="10" cx="297.626" cy="347.763" r="4.212"/>
	<circle fill="#113551" cx="265.986" cy="336.765" r="1.966"/>
	<circle fill="#113551" cx="265.986" cy="347.762" r="1.966"/>
	<circle fill="#113551" cx="297.626" cy="336.765" r="1.966"/>
	<circle fill="#113551" cx="297.626" cy="347.762" r="1.966"/>
	<path fill="#113551" d="M289.716,353.47c0,0.45-0.377,0.817-0.842,0.817H274.74c-0.466,0-0.843-0.367-0.843-0.817v-11.283
		c0-0.451,0.377-0.817,0.843-0.817h14.134c0.466,0,0.842,0.366,0.842,0.817V353.47z"/>
	<rect x="275.921" y="344.681" fill="#FFFFFF" width="6.88" height="0.912"/>
	<rect x="275.921" y="346.435" fill="#FFFFFF" width="11.583" height="1.826"/>
	<path fill="#FFFFFF" d="M278.169,350.578c0,0.466-0.377,0.842-0.842,0.842h-0.246c-0.465,0-0.842-0.377-0.842-0.842v-0.246
		c0-0.465,0.377-0.843,0.842-0.843h0.246c0.465,0,0.842,0.378,0.842,0.843V350.578z"/>
	<path fill="#FFFFFF" d="M281.063,350.578c0,0.466-0.377,0.842-0.841,0.842h-0.246c-0.465,0-0.842-0.377-0.842-0.842v-0.246
		c0-0.465,0.377-0.843,0.842-0.843h0.246c0.464,0,0.841,0.378,0.841,0.843V350.578z"/>
</g>
<path fill="#E5BE83" d="M141.192,396.053c0,0.437-1.243,0.788-2.775,0.788h-19.893c-1.533,0-2.776-0.352-2.776-0.788v-8.246
	c0-0.436,1.243-0.789,2.776-0.789h19.893c1.532,0,2.775,0.354,2.775,0.789V396.053z"/>
<rect x="115.748" y="387.807" fill="#654A3D" width="24.977" height="3.702"/>
<rect x="115.748" y="391.93" fill="#654A3D" width="12.067" height="4.631"/>
<rect x="127.815" y="391.93" fill="#654A3D" width="12.91" height="4.631"/>
<circle fill="#9B807D" cx="125.664" cy="394.221" r="0.78"/>
<circle fill="#9B807D" cx="129.908" cy="394.221" r="0.78"/>
<rect x="117.142" y="396.735" fill="#654A3D" width="1.256" height="1.883"/>
<rect x="138.101" y="396.735" fill="#654A3D" width="1.255" height="1.883"/>
<path fill="#6B6B6B" d="M135.922,381.156c0,1.24-1.005,2.245-2.245,2.245H122.14c-1.24,0-2.245-1.005-2.245-2.245v-5.177
	c0-1.239,1.005-2.244,2.245-2.244h11.538c1.24,0,2.245,1.005,2.245,2.244V381.156z"/>
<rect x="125.664" y="383.401" width="1.341" height="1.933"/>
<rect x="123.92" y="385.334" width="8.385" height="1.342"/>
<rect x="129.128" y="383.401" width="1.34" height="1.933"/>
<path fill="#C1805A" d="M337.812,295.486c0,2.291-1.843,4.147-4.113,4.147h-29.476c-2.271,0-4.112-1.857-4.112-4.147V252.1
	c0-2.291,1.841-4.148,4.112-4.148H333.7c2.27,0,4.113,1.857,4.113,4.148V295.486z"/>
<rect x="300.997" y="262.819" width="35.752" height="13.806"/>
<rect x="300.997" y="276.625" fill="#B1674D" width="18.319" height="21.062"/>
<rect x="319.316" y="276.625" fill="#B1674D" width="17.433" height="21.062"/>
<rect x="300.997" y="249.897" width="35.752" height="12.921"/>
<circle fill="#FFFFFF" cx="315.314" cy="285.346" r="1.811"/>
<circle fill="#FFFFFF" cx="323.315" cy="285.346" r="1.811"/>
<rect x="301.585" y="253.204" fill="#C1A6B4" width="2.952" height="8.615"/>
<rect x="305.244" y="253.204" fill="#F7D8AD" width="2.949" height="8.615"/>
<rect x="308.682" y="253.204" fill="#908783" width="2.95" height="8.615"/>
<rect x="312.028" y="253.204" fill="#A6DAF1" width="2.952" height="8.615"/>
<rect x="315.314" y="253.204" fill="#ABD1A9" width="2.951" height="8.615"/>
<rect x="318.265" y="253.204" fill="#683A89" width="2.95" height="8.615"/>
<rect x="318.265" y="266.893" fill="#F7D8AD" width="2.95" height="8.615"/>
<rect x="322.175" y="266.893" fill="#E14C71" width="2.95" height="8.615"/>
<rect x="326.011" y="266.893" fill="#6898AA" width="2.951" height="8.615"/>
<rect x="328.962" y="266.893" fill="#8E6276" width="2.952" height="8.615"/>
<rect x="331.913" y="266.893" fill="#C6C5C0" width="2.95" height="8.615"/>
<rect x="303.709" y="298.572" fill="#FFFFFF" width="2.36" height="3.362"/>
<rect x="331.027" y="298.572" fill="#FFFFFF" width="2.359" height="3.362"/>
<g>
	<rect x="398.444" y="374.719" fill="#D8B3A6" width="42.151" height="5.27"/>
	<rect x="402.742" y="379.988" fill="#D8B3A6" width="2.357" height="19.273"/>
	<rect x="435.326" y="379.988" fill="#D8B3A6" width="2.358" height="19.273"/>
	<rect x="422.57" y="379.988" fill="#FFFFFF" width="13.935" height="9.637"/>
	<rect x="423.679" y="380.681" fill="#E6D1B6" width="11.647" height="4.126"/>
	<rect x="423.679" y="384.807" fill="#E6D1B6" width="11.647" height="4.124"/>
	<rect x="427.424" y="382.067" fill="#FFFFFF" width="4.089" height="1.179"/>
	<rect x="427.424" y="386.279" fill="#FFFFFF" width="4.089" height="1.177"/>
</g>
<g>
	<path fill="#E6D1B6" d="M392.669,384.482c0,0.96-0.778,1.739-1.739,1.739h-21.382c-0.96,0-1.74-0.778-1.74-1.739l0,0
		c0-0.961,0.779-1.74,1.74-1.74h21.382C391.892,382.742,392.669,383.521,392.669,384.482L392.669,384.482z"/>
	<rect x="369.548" y="386.221" fill="#F2DEC1" width="21.51" height="9.928"/>
	<rect x="372.306" y="396.148" fill="#B1A49E" width="1.838" height="2.291"/>
	<rect x="386.675" y="396.148" fill="#B1A49E" width="1.837" height="2.291"/>
	<rect x="371.711" y="387.494" fill="#B1A49E" width="11.568" height="7.212"/>
	<rect x="384.673" y="387.494" fill="#B1A49E" width="4.688" height="7.212"/>
	<rect x="375.275" y="388.853" fill="#FFFFFF" width="4.167" height="0.764"/>
	<rect x="386.109" y="388.853" fill="#FFFFFF" width="1.485" height="0.764"/>
</g>
<path fill="#E97D69" d="M432.849,430.504h-7.753c0,0,0.88,5.632,7.753,5.632c6.873,0,7.753-5.632,7.753-5.632H432.849z"/>
<rect x="431.986" y="436.101" fill="#1E1C16" width="1.709" height="54.571"/>
<rect x="428.486" y="490.672" fill="#1E1C16" width="8.721" height="1.817"/>
<rect x="212.525" y="432.411" fill="#AC876A" width="12.354" height="2.544"/>
<rect x="228.259" y="432.411" fill="#AC876A" width="12.354" height="2.544"/>
<rect x="244.028" y="432.411" fill="#AC876A" width="12.354" height="2.544"/>
<rect x="266.003" y="424.645" fill="#FFFFFF" width="12.354" height="2.543"/>
<rect x="294.557" y="424.645" fill="#FFFFFF" width="12.354" height="2.543"/>
<g>
	<path fill="#79B7E2" d="M366.771,482.431c0,1.499-1.213,2.712-2.711,2.712h-25.871c-1.498,0-2.71-1.214-2.71-2.712v-7.23
		c0-1.497,1.214-2.71,2.71-2.71h25.871c1.499,0,2.711,1.214,2.711,2.71V482.431z"/>
	<rect x="334.574" y="485.143" fill="#113551" width="33.327" height="3.389"/>
	<path fill="#113551" d="M337.963,483.335c0,1.154-0.935,2.091-2.089,2.091l0,0c-1.156,0-2.091-0.937-2.091-2.091v-4.971
		c0-1.155,0.935-2.09,2.091-2.09l0,0c1.154,0,2.089,0.935,2.089,2.09V483.335z"/>
	<path fill="#113551" d="M368.41,483.335c0,1.154-0.936,2.091-2.09,2.091l0,0c-1.155,0-2.09-0.937-2.09-2.091v-4.971
		c0-1.155,0.936-2.09,2.09-2.09l0,0c1.154,0,2.09,0.935,2.09,2.09V483.335z"/>
	<rect x="335.874" y="488.531" fill="#D1BBA9" width="2.39" height="2.938"/>
	<rect x="364.719" y="488.531" fill="#D1BBA9" width="2.391" height="2.938"/>
	<path fill="#113551" d="M342.935,476.142c0,0.479-0.388,0.866-0.867,0.866l0,0c-0.479,0-0.867-0.387-0.867-0.866l0,0
		c0-0.479,0.388-0.865,0.867-0.865l0,0C342.547,475.275,342.935,475.663,342.935,476.142L342.935,476.142z"/>
	<path fill="#113551" d="M351.546,476.142c0,0.479-0.388,0.866-0.867,0.866l0,0c-0.478,0-0.867-0.387-0.867-0.866l0,0
		c0-0.479,0.389-0.865,0.867-0.865l0,0C351.158,475.275,351.546,475.663,351.546,476.142L351.546,476.142z"/>
	<path fill="#113551" d="M360.171,476.142c0,0.479-0.389,0.866-0.867,0.866l0,0c-0.479,0-0.865-0.387-0.865-0.866l0,0
		c0-0.479,0.387-0.865,0.865-0.865l0,0C359.782,475.275,360.171,475.663,360.171,476.142L360.171,476.142z"/>
	<path fill="#113551" d="M342.935,481.076c0,0.479-0.388,0.867-0.867,0.867l0,0c-0.479,0-0.867-0.388-0.867-0.867l0,0
		c0-0.479,0.388-0.865,0.867-0.865l0,0C342.547,480.21,342.935,480.598,342.935,481.076L342.935,481.076z"/>
	<path fill="#113551" d="M351.546,481.076c0,0.479-0.388,0.867-0.867,0.867l0,0c-0.478,0-0.867-0.388-0.867-0.867l0,0
		c0-0.479,0.389-0.865,0.867-0.865l0,0C351.158,480.21,351.546,480.598,351.546,481.076L351.546,481.076z"/>
	<path fill="#113551" d="M360.171,481.076c0,0.479-0.389,0.867-0.867,0.867l0,0c-0.479,0-0.865-0.388-0.865-0.867l0,0
		c0-0.479,0.387-0.865,0.865-0.865l0,0C359.782,480.21,360.171,480.598,360.171,481.076L360.171,481.076z"/>
</g>
<rect x="113.87" y="407.339" width="1.938" height="22.801"/>
<rect x="123.983" y="407.339" width="1.938" height="13.595"/>
<path fill="#E97D69" d="M115.807,430.14h-0.969h-0.969c0,0-2.422,1.938-2.422,7.752l1.695,7.631h1.696h1.695l1.695-7.631
	C118.229,432.077,115.807,430.14,115.807,430.14z"/>
<path fill="#E97D69" d="M125.92,420.934h-0.969h-0.969c0,0-2.422,1.938-2.422,7.752l1.695,7.631h1.696h1.695l1.695-7.631
	C128.342,422.871,125.92,420.934,125.92,420.934z"/>
<g>
	<circle fill="#FFFFFF" cx="381.29" cy="329.411" r="9.051"/>
	<circle fill="#F3B49A" cx="381.29" cy="329.411" r="8.042"/>
	<path fill="#FFFFFF" d="M381.542,323.834c0,0.147-0.12,0.269-0.269,0.269l0,0c-0.148,0-0.269-0.121-0.269-0.269v-1.649
		c0-0.148,0.121-0.27,0.269-0.27l0,0c0.149,0,0.269,0.121,0.269,0.27V323.834z"/>
	<path fill="#FFFFFF" d="M381.542,336.419c0,0.148-0.12,0.269-0.269,0.269l0,0c-0.148,0-0.269-0.12-0.269-0.269v-1.648
		c0-0.149,0.121-0.271,0.269-0.271l0,0c0.149,0,0.269,0.121,0.269,0.271V336.419z"/>
	<path fill="#FFFFFF" d="M388.423,329.04c0.148,0,0.269,0.12,0.269,0.269l0,0c0,0.149-0.121,0.27-0.269,0.27h-1.65
		c-0.148,0-0.268-0.12-0.268-0.27l0,0c0-0.148,0.12-0.269,0.268-0.269H388.423z"/>
	<path fill="#FFFFFF" d="M375.805,329.04c0.148,0,0.269,0.12,0.269,0.269l0,0c0,0.149-0.121,0.27-0.269,0.27h-1.649
		c-0.148,0-0.269-0.12-0.269-0.27l0,0c0-0.148,0.121-0.269,0.269-0.269H375.805z"/>
	<path fill="none" stroke="#113551" stroke-miterlimit="10" d="M387.09,331.92l-5.155-2.594c0.028-0.075,0.044-0.157,0.044-0.243
		c0-0.019-0.001-0.036-0.003-0.055l3.473-1.148c0.136-0.045,0.205-0.211,0.153-0.37c-0.053-0.159-0.205-0.251-0.344-0.206
		l-3.596,1.189c-0.11-0.073-0.246-0.118-0.39-0.118c-0.391,0-0.708,0.317-0.708,0.707c0,0.391,0.317,0.707,0.708,0.707
		c0.064,0,0.125-0.01,0.185-0.026l5.361,2.696c0.183,0.091,0.391,0.044,0.466-0.104C387.359,332.206,387.272,332.011,387.09,331.92z
		"/>
</g>
<path fill="#D6594C" d="M418.516,479.649c0,1.204-0.977,2.18-2.18,2.18h-33.915c-1.205,0-2.18-0.976-2.18-2.18v-13.719
	c0-1.204,0.976-2.181,2.18-2.181h33.915c1.204,0,2.18,0.977,2.18,2.181V479.649z"/>
<rect x="376.608" y="486.432" fill="#D6594C" width="45.542" height="2.544"/>
<rect x="380.241" y="488.976" fill="#C8B7A4" width="1.817" height="3.392"/>
<rect x="416.698" y="488.976" fill="#C8B7A4" width="1.817" height="3.392"/>
<path fill="#FFFFFF" d="M438.903,350.852c0,0.62-0.503,1.123-1.124,1.123h-43.987c-0.621,0-1.123-0.503-1.123-1.123l0,0
	c0-0.62,0.502-1.124,1.123-1.124h43.987C438.4,349.729,438.903,350.231,438.903,350.852L438.903,350.852z"/>
<path fill="#E75830" d="M437.684,336.765c0,1.086-0.88,1.966-1.966,1.966h-16.409c-1.086,0-1.966-0.88-1.966-1.966l0,0
	c0-1.086,0.88-1.966,1.966-1.966h16.409C436.804,334.799,437.684,335.679,437.684,336.765L437.684,336.765z"/>
<path fill="#D3748A" d="M437.684,340.978c0,1.086-0.88,1.966-1.966,1.966h-16.409c-1.086,0-1.966-0.88-1.966-1.966l0,0
	c0-1.086,0.88-1.966,1.966-1.966h16.409C436.804,339.01,437.684,339.89,437.684,340.978L437.684,340.978z"/>
<path fill="#538DC8" d="M437.684,345.798c0,1.086-0.88,1.966-1.966,1.966h-16.409c-1.086,0-1.966-0.88-1.966-1.966l0,0
	c0-1.086,0.88-1.966,1.966-1.966h16.409C436.804,343.832,437.684,344.712,437.684,345.798L437.684,345.798z"/>
<path fill="#538DC8" d="M437.684,348.745c0,0.543-0.88,0.984-1.966,0.984h-16.409c-1.086,0-1.966-0.44-1.966-0.984l0,0
	c0-0.542,0.88-0.983,1.966-0.983h16.409C436.804,347.762,437.684,348.203,437.684,348.745L437.684,348.745z"/>
<rect x="353.563" y="429.866" fill="#DF644D" width="15.261" height="14.292"/>
<rect x="369.915" y="429.866" fill="#DF644D" width="15.261" height="14.292"/>
<rect x="386.167" y="429.866" fill="#DF644D" width="15.262" height="14.292"/>
<rect x="355.077" y="431.44" fill="#E9E3DE" width="12.233" height="11.265"/>
<rect x="371.43" y="431.44" fill="#6B6B6B" width="12.233" height="11.265"/>
<rect x="387.68" y="431.44" fill="#3A3534" width="12.233" height="11.265"/>
<rect x="359.478" y="181.613" width="1.18" height="33.382"/>
<path fill="#113551" d="M360.067,214.996c-9.402,0-9.766,7.661-9.766,7.661h9.766h9.766
	C369.834,222.657,369.469,214.996,360.067,214.996z"/>
<path fill="#F4BEB4" d="M424.269,484.025c0,1.203-0.977,2.18-2.18,2.18h-45.421c-1.204,0-2.18-0.977-2.18-2.18v-10.417
	c0-1.205,0.976-2.181,2.18-2.181h45.421c1.204,0,2.18,0.976,2.18,2.181V484.025z"/>
<rect x="380.241" y="476.096" fill="#D6594C" width="38.275" height="5.733"/>
<polygon fill="#F2F1F0" points="173.512,381.903 153.538,381.903 153.538,392.077 173.512,392.077 194.235,392.077 194.235,381.903 
	"/>
<g id="Layer_1_2_">
	<rect x="252.374" y="394.258" fill="#C2985F" width="2.907" height="4.36"/>
	<rect x="310.513" y="394.258" fill="#C2985F" width="2.907" height="4.36"/>
</g>
<polygon fill="#293649" points="0,500 0,500.04 0,558.46 0,560 960,560 960,527.368 960,500 "/>
<g>
	<path fill="#008000" d="M487.729,515.392c0,0,3.727-0.109,4.89-1.85l1.474,1.85l1.396-3.698c0,0,2.176,0.869,2.405,3.698
		c0,0,1.166-0.654,1.32-2.938c0,0,1.319,0.762,1.397,2.938c0,0,1.008-2.067,0.93-4.569c0,0,1.864,1.74,1.632,3.752
		c-0.233,2.013,0,0,0,0s5.238,4.647,8.109-1.43l0.62-1.18c0,0-0.351,1.957,0.776,3.317l0.893-2.066l0.931,1.903
		c0,0,1.049-2.502,1.745-2.447l1.204,2.773l1.009-1.576c0,0,2.562,1.848,3.764,1.141c0,0-3.899,3.949-10.669,2.285
		c0,0-4.192,2.121-7.528-0.382c0,0-5.316,4.454-7.374,1.221C496.653,518.134,490.215,518.438,487.729,515.392z"/>
	<path fill="#617F3D" d="M503.687,422.143c0,0,3.264-6.484-2.12-6.484c0,0-3.101,0.693-3.591,5.425c0,0-4.404-1.794-5.549,0.325
		c0,0-0.813,2.123,1.634,5.875c0,0-4.896-1.795-5.221,0.815c0,0-1.796,2.448-0.98,5.711l0.408,0.897c0,0-4.649-1.305-5.466,0.733
		c0,0-0.57,2.611,2.039,5.548c0,0-6.364-0.08-6.935,2.203c0,0-0.57,1.796,2.938,4.978c0,0-5.221-0.082-4.568,3.508
		c0,0,0.49,2.202,1.55,4.079c0,0-3.182-1.061-3.427,1.387c0,0-0.652,3.752,2.448,8.484c0,0-5.36-0.653-5.36,2.772
		c0,0,0.873,3.835,5.604,7.343c0,0-2.527,3.265-0.65,5.222c0,0,3.018,1.958,8.238,1.223c0,0-2.529,5.14,0.163,6.446
		c0,0,3.1,1.223,7.75-0.653c0,0-3.588,3.755,0.815,6.201c0,0,5.222,4.16,10.28-2.855"/>
	<path fill="#617F3D" d="M503.142,422.143c0,0-3.264-6.484,2.12-6.484c0,0,3.101,0.693,3.59,5.425c0,0,4.405-1.794,5.548,0.325
		c0,0,0.815,2.123-1.633,5.875c0,0,4.895-1.795,5.222,0.815c0,0,1.794,2.448,0.98,5.711l-0.408,0.897c0,0,4.65-1.305,5.467,0.733
		c0,0,0.568,2.611-2.041,5.548c0,0,6.362-0.08,6.935,2.203c0,0,0.572,1.796-2.938,4.978c0,0,5.222-0.082,4.568,3.508
		c0,0-0.489,2.202-1.55,4.079c0,0,3.184-1.061,3.428,1.387c0,0,0.651,3.752-2.447,8.484c0,0,5.358-0.653,5.358,2.772
		c0,0-0.872,3.835-5.603,7.343c0,0,2.527,3.265,0.652,5.222c0,0-3.02,1.958-8.24,1.223c0,0,2.529,5.14-0.163,6.446
		c0,0-3.101,1.223-7.75-0.653c0,0,3.589,3.755-0.816,6.201c0,0-5.221,4.16-10.278-2.855"/>
	<path fill="#A16121" d="M498.792,496.07c0,0,3.915,8.835,1.632,18.68c0,0,5.71,6.31,10.277,0c0,0,1.145-11.611-2.936-21.204
		l-3.916-3.281L498.792,496.07z"/>
</g>
<path d="M872.695,472.703c-24.837,0-30.779,19.797-30.779,19.797h-40.017l-0.241-20H787.5v-25h-3.448l-0.115,20.162L599.5,468.239
	V485.5h16.12c0,16,5.573,15.036,5.573,15.036l84.153,0.964h113.627l7.414,13h19.427l12.921-21.639l43.502-0.62
	C902.237,487.897,897.528,472.703,872.695,472.703z M738.5,490.5h-109v-5h109V490.5z"/>
<rect x="600.229" y="468.039" fill="#26252A" width="4.977" height="9.558"/>
<rect x="643.23" y="468.039" fill="#26252A" width="4.78" height="9.558"/>
<rect x="673.492" y="468.039" fill="#26252A" width="4.778" height="3.585"/>
<rect x="685.836" y="468.039" fill="#26252A" width="4.777" height="7.301"/>
<rect x="729.036" y="468.039" fill="#26252A" width="4.778" height="7.301"/>
<polygon fill="#26252A" points="697.188,489.939 694.793,487.464 719.063,467.642 724.458,467.642 "/>
<circle fill="#302A36" cx="872.757" cy="506.021" r="26.943"/>
<circle fill="#080F08" cx="873.172" cy="506.021" r="18.084"/>
<circle fill="#CDCED0" cx="873.172" cy="505.866" r="13.737"/>
<circle fill="#302A36" cx="873.172" cy="505.866" r="4.977"/>
<path fill="#2F2C33" d="M797.123,486.754c0,4.947-4.013,8.959-8.959,8.959l0,0c-4.945,0-8.959-4.012-8.959-8.959l0,0
	c0-4.946,4.014-8.958,8.959-8.958l0,0C793.11,477.796,797.123,481.808,797.123,486.754L797.123,486.754z"/>
<path fill="#C6CBD1" d="M769.885,497.138c-3.099-11.068-29.271-10.411-29.271-10.411c-16.529,0-20.479,6.353-21.32,10.411h-0.003
	c0,0-0.021,0.1-0.045,0.266c-0.319,1.761-0.061,3.025-0.061,3.025h0.232c0.978,4.056,5.575,10.412,24.806,10.412
	C744.223,510.841,769.885,511.663,769.885,497.138L769.885,497.138z"/>
<polygon fill="#26252A" points="719.212,503.282 724.458,506.019 702.422,510.844 702.422,504.805 "/>
<circle fill="#302A36" cx="678.452" cy="506.021" r="26.942"/>
<path fill="#080F08" d="M696.951,506.021c0,9.986-8.1,18.082-18.084,18.082c-9.985,0-18.083-8.096-18.083-18.082
	c0-9.988,8.098-18.084,18.083-18.084C688.852,487.937,696.951,496.032,696.951,506.021z"/>
<circle fill="#CDCED0" cx="678.866" cy="505.866" r="13.737"/>
<circle fill="#302A36" cx="678.867" cy="505.866" r="4.977"/>
<path fill="#302A36" d="M643.23,500.405h4.78c0,0-0.005,13.425-4.78,19.197h-7.167C636.063,519.603,646.016,508.48,643.23,500.405z"
	/>
<rect x="592.265" y="467.642" fill="#26252A" width="7.964" height="33.286"/>
<rect x="587.688" y="480.78" fill="#EBE4DE" width="4.577" height="10.073"/>
<rect x="567.183" y="430.215" fill="#D6CBC7" width="216.999" height="5.773"/>
<rect x="570.237" y="435.988" fill="#E2E6D8" width="214.062" height="31.79"/>
<rect x="673.492" y="435.988" fill="#D6CBC7" width="4.778" height="32.051"/>
<rect x="771.704" y="435.988" fill="#D6CBC7" width="4.782" height="32.051"/>
<rect x="575.543" y="435.988" fill="#D6CBC7" width="4.778" height="32.051"/>
<rect x="584.701" y="382.625" fill="#B59064" width="47.78" height="47.59"/>
<rect x="587.785" y="415.084" fill="#C4C6BB" width="24.887" height="11.149"/>
<rect x="632.481" y="382.625" fill="#E5B35A" width="35.703" height="47.59"/>
<rect x="645.619" y="382.625" fill="#8A5C3A" width="9.825" height="21.842"/>
<rect x="795.327" y="408.059" fill="#8A5C3A" width="9.825" height="11.381"/>
<rect x="610.049" y="356.688" fill="#B18F61" width="37.962" height="25.938"/>
<rect x="623.324" y="356.688" fill="#8A5C3A" width="9.157" height="17.253"/>
<rect x="648.011" y="356.688" fill="#A5764A" width="27.871" height="25.938"/>
<rect x="657.764" y="366.907" fill="#C4C6BB" width="15.729" height="12.542"/>
<rect x="665.627" y="340.758" fill="#BF9752" width="103.692" height="89.457"/>
<polygon fill="#90663E" points="678.271,354.562 678.271,420.659 748.349,354.562 "/>
<polygon fill="#A87E42" points="678.271,354.562 678.271,420.659 696.437,403.526 696.437,354.562 "/>
<polygon fill="#A5793D" points="696.437,354.562 710.651,354.562 710.651,390.114 696.437,403.526 "/>
<polygon fill="#AF8648" points="710.651,354.562 710.651,390.114 725.287,376.311 725.287,354.562 "/>
<polygon fill="#B58C4E" points="725.287,354.562 741.578,354.562 741.578,360.948 725.287,376.311 "/>
<polygon fill="#9B7342" points="698.378,424.974 713.309,424.974 713.309,403.635 698.378,417.474 "/>
<polygon fill="#9B7342" points="710.505,424.974 725.437,424.974 725.437,392.564 708.627,407.974 "/>
<polygon fill="#B18848" points="725.437,392.564 740.287,378.093 740.287,424.974 725.437,424.974 "/>
<rect x="779.205" y="382.625" fill="#D6CBC7" width="4.977" height="47.59"/>
<polygon fill="#A4B1C3" points="779.205,392.564 774.095,392.564 769.319,409.908 769.319,430.215 "/>
<path fill="#F99921" d="M803.956,370.489c0,0-15.792-0.656-15.792,10.278v91.651H802.1l-0.2,19.511h40.017
	c0,0,6.353-19.511,30.779-19.511c0,0,26.591-2.785,29.542,19.511h3.784v-18.07c0,0,2.09-6.039,9.556-6.879v-32.383
	c0,0-5.559-10.457-29.979-10.489c0,0-11.228-33.437-7.115-41.797l5.242-0.247c0,0,1.354-11.583-12.742-11.575H803.956z"/>
<path fill="#4D727A" d="M883.725,382.064l-5.242,0.247c0,0-6.48,9.937,5.929,45.146l8.243-3.133
	C888.395,379.86,882.895,382.064,883.725,382.064z"/>
<path fill="#DBE3E5" d="M915.607,440.7h6.372l-0.03,25.479c0,0,9.554-0.89,9.554,7.983c0,0,1.593,17.85-0.397,17.85l-25.084-0.165
	v-19.456c0,0,0-6.877,9.556-6.877L915.607,440.7z"/>
<path opacity="0.2" fill="#DBE3E5" d="M823.942,378.462c0,0-10.73-0.666-10.73,9.809v78.042c0,0,1.99,11.547,16.323,11.547
	c0,0,13.539,0.796,19.511-13.141c0,0-1.399-4.507,25.917-4.507c0,0,5.538-81.75-11.184-81.75
	C847.056,378.462,823.942,378.462,823.942,378.462z"/>
<rect x="820.017" y="437.383" fill="#D8E1DE" width="6.371" height="9.555"/>
<rect x="820.017" y="448.785" fill="#F2CDB2" width="3.187" height="4.778"/>
<path fill="#BDC4CE" d="M901.648,439.5h5.209l2.604-25.934c0,0,5.215-25.066-6.514-25.066H898.5v28h5.75l-15.469,13.578l3.092,2.359
	l10.752-9.848L901.648,439.5z"/>
<rect x="860.361" y="366.635" fill="#D9D3DD" width="12.743" height="3.854"/>
<rect x="863.548" y="362.78" fill="#D35735" width="6.37" height="3.854"/>
<path fill="#4D727A" d="M825.634,382.715c0,0-5.134-0.226-5.134,5.351v35.236c0,0-0.176,6.198,1.906,6.198h42.204
	c0,0,4.182,0.485,4.182-5.486c0,0,0.122-41.767-7.644-41.767C853.385,382.247,825.634,382.715,825.634,382.715z"/>
<rect x="580.321" y="444.851" fill="#D6CBC7" width="93.569" height="3.443"/>
<rect x="677.673" y="444.851" fill="#D6CBC7" width="93.568" height="3.443"/>
<rect x="580.321" y="455.734" fill="#D6CBC7" width="93.569" height="3.443"/>
<rect x="677.673" y="455.734" fill="#D6CBC7" width="93.568" height="3.443"/>
<rect x="898.5" y="388.5" fill="#DBE3E5" width="2" height="28"/>
<polygon fill="#DBE3E5" points="893.807,433.144 891.873,432.046 901.666,422.612 901.314,426.012 "/>
<path fill="#B8BFC1" d="M926.465,471.5c0,1.086-0.875,2-1.952,2h-10.418c-1.079,0-1.954-0.914-1.954-2l0,0c0-1.086,0.875-2,1.954-2
	h10.418C925.59,469.5,926.465,470.414,926.465,471.5L926.465,471.5z"/>
<path fill="#B8BFC1" d="M926.5,477.534c0,1.086-0.88,1.966-1.966,1.966h-11.068c-1.086,0-1.966-0.88-1.966-1.966v-0.068
	c0-1.086,0.88-1.966,1.966-1.966h11.068c1.086,0,1.966,0.88,1.966,1.966V477.534z"/>
<path fill="#B8BFC1" d="M926.5,485.535c0,1.085-0.88,1.965-1.966,1.965h-11.068c-1.086,0-1.966-0.88-1.966-1.965v-0.07
	c0-1.085,0.88-1.965,1.966-1.965h11.068c1.086,0,1.966,0.88,1.966,1.965V485.535z"/>
<path fill="#D8E1DE" d="M897.5,458.5c0,2.762-2.238,5-5,5h-5c-2.762,0-5-2.238-5-5l0,0c0-2.762,2.238-5,5-5h5
	C895.262,453.5,897.5,455.738,897.5,458.5L897.5,458.5z"/>
<path fill="#D35735" d="M894.455,459.248c0,1.694-1.374,3.068-3.067,3.068h-1.725c-1.694,0-3.068-1.374-3.068-3.068v-0.413
	c0-1.695,1.374-3.069,3.068-3.069h1.725c1.693,0,3.067,1.374,3.067,3.069V459.248z"/>
</svg>
