<?xml version="1.0" encoding="UTF-8" standalone="no"?>
<svg width="39px" height="47px" viewBox="0 0 39 47" version="1.1" xmlns="http://www.w3.org/2000/svg" xmlns:xlink="http://www.w3.org/1999/xlink" xmlns:sketch="http://www.bohemiancoding.com/sketch/ns">
    <!-- Generator: Sketch 3.3.2 (12043) - http://www.bohemiancoding.com/sketch -->
    <title>fire</title>
    <desc>Created with Sketch.</desc>
    <defs></defs>
    <g id="Page-1" stroke="none" stroke-width="1" fill="none" fill-rule="evenodd" sketch:type="MSPage">
        <g id="widget" sketch:type="MSArtboardGroup" transform="translate(-29.000000, -510.000000)" fill="#EF5350">
            <g id="Group" sketch:type="MSLayerGroup" transform="translate(-1.000000, 19.500000)">
                <path d="M50.3120455,534.283632 C40.9254894,534.283632 33.318123,526.55447 33.318123,517.877732 C33.318123,515.862871 33.3639327,514.227329 34.7958554,512.649478 C34.6406935,513.563882 36.8602476,521.382465 44.1129581,520.972858 C43.7982011,515.03212 42.1520073,500.478104 49.7977946,495.447442 C49.1224709,503.356888 51.1070655,513.982142 59.9601603,515.534032 C59.4532981,512.362465 59.5138851,507.086616 61.789593,506.111637 C62.0348966,510.970668 65.7159279,513.967719 65.7159279,518.637812 C65.7159279,527.095324 57.3327521,534.283632 50.3120455,534.283632 L50.3120455,534.283632 Z M64.2101186,501.043476 C57.7302621,502.846322 56.543643,507.959194 56.9618413,511.207201 C52.3394943,505.902507 52.5286441,499.803118 52.5286441,491.015325 C37.7040328,496.471458 41.1515824,512.199488 40.706785,516.976309 C36.9784662,513.998007 36.2735878,506.880371 36.2735878,506.880371 C32.3369087,508.857732 30.3626582,514.136466 30.3626582,518.418586 C30.3626582,528.774134 38.9630608,537.168186 49.5731793,537.168186 C60.1832979,537.168186 68.7837004,528.774134 68.7837004,518.418586 C68.7837004,512.26439 64.1539648,509.425989 64.2101186,501.043476 L64.2101186,501.043476 Z" id="fire" sketch:type="MSShapeGroup"></path>
            </g>
        </g>
    </g>
</svg>