<?xml version="1.0" encoding="UTF-8" standalone="no"?>
<svg width="98px" height="96px" viewBox="0 0 98 96" version="1.1" xmlns="http://www.w3.org/2000/svg" xmlns:xlink="http://www.w3.org/1999/xlink" xmlns:sketch="http://www.bohemiancoding.com/sketch/ns">
    <!-- Generator: Sketch 3.3.2 (12043) - http://www.bohemiancoding.com/sketch -->
    <title>Oval 1 + sahre</title>
    <desc>Created with Sketch.</desc>
    <defs></defs>
    <g id="Page-1" stroke="none" stroke-width="1" fill="none" fill-rule="evenodd" sketch:type="MSPage">
        <g id="widget" sketch:type="MSArtboardGroup" transform="translate(-292.000000, -419.000000)">
            <g id="Group" sketch:type="MSLayerGroup" transform="translate(-1.000000, 19.500000)">
                <g id="Oval-1-+-sahre" transform="translate(293.000000, 399.000000)" sketch:type="MSShapeGroup">
                    <ellipse id="Oval-1" fill="#FFCA28" cx="49" cy="48.3798931" rx="48.6666534" ry="47.8311464"></ellipse>
                    <path d="M60.1349872,69.6812134 C56.892856,69.6812134 54.2651058,67.0805158 54.2651058,63.8717624 C54.2651058,60.663009 56.892856,58.0623114 60.1349872,58.0623114 C63.3771184,58.0623114 66.0048686,60.663009 66.0048686,63.8717624 C66.0048686,67.0805158 63.3771184,69.6812134 60.1349872,69.6812134 L60.1349872,69.6812134 Z M32.7422072,54.1893441 C29.500076,54.1893441 26.8723257,51.5886465 26.8723257,48.3798931 C26.8723257,45.1730762 29.500076,42.5704421 32.7422072,42.5704421 C35.9843384,42.5704421 38.6120886,45.1730762 38.6120886,48.3798931 C38.6120886,51.5886465 35.9843384,54.1893441 32.7422072,54.1893441 L32.7422072,54.1893441 Z M60.1349872,27.0785728 C63.3771184,27.0785728 66.0048686,29.6792704 66.0048686,32.8880238 C66.0048686,36.0967773 63.3771184,38.6974748 60.1349872,38.6974748 C56.892856,38.6974748 54.2651058,36.0967773 54.2651058,32.8880238 C54.2651058,29.6792704 56.892856,27.0785728 60.1349872,27.0785728 L60.1349872,27.0785728 Z M60.1349872,54.1893441 C56.6717572,54.1893441 53.6487682,55.9805915 51.9093267,58.6664943 L41.4315883,52.7408543 C42.1085813,51.4240454 42.5253429,49.9561908 42.5253429,48.3798931 C42.5253429,47.4058418 42.3355501,46.4840756 42.0655355,45.5971661 L52.9659053,39.4333386 C54.7523059,41.3504574 57.292008,42.5704421 60.1349872,42.5704421 C65.5391914,42.5704421 69.9181229,38.2365917 69.9181229,32.8880238 C69.9181229,27.539456 65.5391914,23.2056055 60.1349872,23.2056055 C54.730783,23.2056055 50.3518515,27.539456 50.3518515,32.8880238 C50.3518515,33.8620751 50.5416443,34.7838413 50.8116589,35.6726873 L39.911289,41.8345783 C38.1248884,39.919396 35.5851864,38.6974748 32.7422072,38.6974748 C27.338003,38.6974748 22.9590714,43.0313252 22.9590714,48.3798931 C22.9590714,53.728461 27.338003,58.0623114 32.7422072,58.0623114 C34.9727621,58.0623114 37.0056977,57.2954639 38.6512212,56.0522414 L38.6120886,56.1258278 L50.459466,62.8260612 C50.4203334,63.1746283 50.3518515,63.5115764 50.3518515,63.8717624 C50.3518515,69.2203303 54.730783,73.5541807 60.1349872,73.5541807 C65.5391914,73.5541807 69.9181229,69.2203303 69.9181229,63.8717624 C69.9181229,58.5231945 65.5391914,54.1893441 60.1349872,54.1893441 L60.1349872,54.1893441 Z" id="sahre" fill="#FFFFFF"></path>
                </g>
            </g>
        </g>
    </g>
</svg>