<?xml version="1.0" encoding="utf-8"?>
<!-- Generator: Adobe Illustrator 16.0.0, SVG Export Plug-In . SVG Version: 6.00 Build 0)  -->
<!DOCTYPE svg PUBLIC "-//W3C//DTD SVG 1.1//EN" "http://www.w3.org/Graphics/SVG/1.1/DTD/svg11.dtd">
<svg version="1.1"
	 id="svg2" xmlns:dc="http://purl.org/dc/elements/1.1/" xmlns:cc="http://creativecommons.org/ns#" xmlns:rdf="http://www.w3.org/1999/02/22-rdf-syntax-ns#" xmlns:svg="http://www.w3.org/2000/svg" xmlns:sodipodi="http://sodipodi.sourceforge.net/DTD/sodipodi-0.dtd" xmlns:inkscape="http://www.inkscape.org/namespaces/inkscape" sodipodi:docname="Intel Logo.svg" inkscape:version="0.91 r13725"
	 xmlns="http://www.w3.org/2000/svg" xmlns:xlink="http://www.w3.org/1999/xlink" x="0px" y="0px" width="151.443px" height="100px"
	 viewBox="0 620.354 151.443 100" enable-background="new 0 620.354 151.443 100" xml:space="preserve">
<g id="logo">
	<path id="path33148" fill="#404040" d="M113.893,662.376v3.69h-2.537c-1.229,0-2.248,0.089-3.072,0.27
		c-0.814,0.18-1.551,0.471-2.199,0.882c-1.232,0.771-1.857,1.723-1.857,2.856c0,1.063,0.594,1.981,1.781,2.749
		c0.697,0.449,1.473,0.762,2.328,0.947c0.85,0.183,1.955,0.275,3.314,0.275h2.242v3.691h-3.381c-3.043,0-5.541-0.351-7.48-1.066
		c-2.453-0.904-4.174-2.214-5.182-3.919c-0.512-0.86-0.771-1.744-0.771-2.643c0-1.183,0.428-2.324,1.283-3.436
		c0.658-0.847,1.506-1.593,2.572-2.228c1.553-0.924,3.406-1.522,5.551-1.812c1.264-0.174,2.689-0.259,4.283-0.259H113.893z"/>
	<path id="path33152" fill="#404040" d="M120.913,657.146v8.872l0.051,0.18c2.301,0.295,4.781-0.271,5.932-2.344
		c0.596-0.867,0.736-1.479,0.742-1.479h5.08c0.896,2.635-1.373,4.947-3.646,5.857c3.658,2.413,4.131,5.042,3.979,9.504h-6.031
		h-0.004c0.092-3.574-0.471-7.739-6.109-7.397l0.008,7.397h-6.332v-20.591H120.913L120.913,657.146z"/>
	<path id="path33156" fill="#404040" d="M38.472,677.883h11.591l0.924-0.026c3.849-0.114,6.431-3.139,6.462-6.443
		c0.033-3.68-3.345-5.952-7.226-5.952h-6.56h-0.318c-1.052,0-1.758-0.894-1.817-1.786c-0.065-1.026,0.766-2.112,1.976-2.112h12.863
		v-4.384H43.281c-5,0-7.133,2.787-7.229,6.143c-0.096,3.275,2.58,6.495,6.432,6.495h7.132l0.798,0.056
		c0.953,0.063,1.566,0.812,1.623,1.622c0.07,1.03-0.955,1.978-2.164,1.978l-14.221,0.056l0.097-16.376l-8.741-0.004
		c-2.739-0.041-4.166,1.624-5.188,3.944l-8.745,16.735l0.498,0.029l6.474-0.059c2.287-4.739,4.57-9.479,6.854-14.223
		c0.872-1.513,1.364-1.736,2.945-1.564l-0.003,15.872H38.472L38.472,677.883z"/>
	<path id="path33160" fill="#404040" d="M63.125,665.136h4.654c1.107,0,1.77-0.21,2.102-0.552c0.271-0.275,0.402-0.657,0.402-1.026
		c0-0.499-0.188-0.869-0.553-1.108c-0.373-0.241-0.998-0.417-1.797-0.417l-4.809,0.004V665.136L63.125,665.136z M68.088,657.146
		c1.688,0.052,3.014-0.101,4.105,0.224c2.333,0.65,3.591,1.684,4.202,2.949c0.346,0.698,0.461,1.439,0.461,2.217
		c0,1.423-0.422,2.641-1.373,3.551c-0.438,0.416-0.875,0.74-1.396,0.967c-0.525,0.223-1.339,0.505-2.277,0.685
		c3.802,2.119,4.8,4.471,4.8,9.949h-6.597c-0.012-5.563-2.219-7.743-6.889-7.688v7.738h-4.943v-20.591H68.088L68.088,657.146z"/>
	<path id="path33164" fill="#404040" d="M86.612,666.817c1.922,0,3.49,1.454,3.49,3.24c0,1.784-1.568,3.238-3.49,3.238
		c-1.916,0-3.486-1.454-3.486-3.238C83.126,668.271,84.696,666.817,86.612,666.817"/>
	<path id="path33168" fill="#404040" d="M86.612,665.73c2.566,0,4.658,1.944,4.658,4.328c0,2.38-2.092,4.326-4.658,4.326
		c-2.562,0-4.654-1.946-4.654-4.326C81.958,667.675,84.05,665.73,86.612,665.73 M86.612,662.376c5.582,0,10.137,3.451,10.137,7.683
		c0,4.228-4.555,7.679-10.137,7.679s-10.133-3.451-10.133-7.679C76.479,665.827,81.03,662.376,86.612,662.376"/>
	<path id="path33172" fill="#404040" d="M130.274,657.786c0.918,0,1.664,0.748,1.664,1.662c0,0.916-0.746,1.663-1.664,1.663
		c-0.914,0-1.66-0.747-1.66-1.663C128.614,658.534,129.36,657.786,130.274,657.786 M130.274,658.106
		c0.742,0,1.346,0.604,1.346,1.342c0,0.742-0.604,1.345-1.346,1.345c-0.738,0-1.344-0.603-1.344-1.345
		C128.93,658.71,129.536,658.106,130.274,658.106"/>
	<path id="path33176" fill="#404040" d="M129.942,659.319h0.254c0.164,0,0.27-0.006,0.309-0.021
		c0.043-0.016,0.072-0.037,0.098-0.073c0.021-0.033,0.033-0.075,0.033-0.126c0-0.06-0.016-0.102-0.047-0.141
		c-0.029-0.035-0.074-0.056-0.129-0.067c-0.029,0-0.111-0.004-0.25-0.004h-0.268V659.319L129.942,659.319z M129.598,660.299V658.6
		h0.725c0.178,0,0.309,0.016,0.395,0.044c0.08,0.033,0.146,0.087,0.197,0.164c0.049,0.079,0.072,0.17,0.072,0.271
		c0,0.125-0.037,0.229-0.111,0.314s-0.186,0.135-0.336,0.156c0.074,0.044,0.135,0.093,0.184,0.143
		c0.049,0.054,0.113,0.145,0.195,0.277l0.207,0.33h-0.41l-0.248-0.37c-0.086-0.131-0.148-0.215-0.18-0.249
		c-0.033-0.034-0.068-0.058-0.104-0.069c-0.035-0.011-0.094-0.021-0.174-0.021h-0.068v0.71H129.598L129.598,660.299z"/>
</g>
</svg>
