<?xml version="1.0" encoding="utf-8"?>
<!-- Generator: Adobe Illustrator 16.0.0, SVG Export Plug-In . SVG Version: 6.00 Build 0)  -->
<!DOCTYPE svg PUBLIC "-//W3C//DTD SVG 1.1//EN" "http://www.w3.org/Graphics/SVG/1.1/DTD/svg11.dtd">
<svg version="1.1"
	 id="svg2" xmlns:dc="http://purl.org/dc/elements/1.1/" xmlns:cc="http://creativecommons.org/ns#" xmlns:rdf="http://www.w3.org/1999/02/22-rdf-syntax-ns#" xmlns:svg="http://www.w3.org/2000/svg" xmlns:sodipodi="http://sodipodi.sourceforge.net/DTD/sodipodi-0.dtd" xmlns:inkscape="http://www.inkscape.org/namespaces/inkscape" sodipodi:docname="Intel Logo.svg" inkscape:version="0.91 r13725"
	 xmlns="http://www.w3.org/2000/svg" xmlns:xlink="http://www.w3.org/1999/xlink" x="0px" y="0px" width="151.443px" height="100px"
	 viewBox="0 1001.354 151.443 100" enable-background="new 0 1001.354 151.443 100" xml:space="preserve">
<g>
	<path fill="#404040" d="M78.468,1031.328l-3.51,14.074h-3.238l-2.342-9.311l-2.238,9.311h-3.224l-3.601-14.074h3.359l1.938,8.589
		c0.008,0.042,0.045,0.193,0.113,0.452c0.027,0.097,0.065,0.242,0.113,0.436l2.307-9.477h3.037l2.383,9.477
		c0.049-0.18,0.115-0.476,0.205-0.888l1.99-8.589H78.468z"/>
	<path fill="#404040" d="M83.911,1036.785c1.068,0,1.653,0.721,1.748,2.161h-3.675C82.122,1037.505,82.762,1036.785,83.911,1036.785
		z M87.247,1036.205c-0.958-0.945-2.105-1.419-3.444-1.419c-1.483,0-2.698,0.509-3.642,1.524c-0.945,1.016-1.416,2.352-1.416,4.006
		c0,1.111,0.233,2.066,0.704,2.862s1.067,1.401,1.791,1.817s1.604,0.623,2.641,0.623c2.373,0,3.947-1.201,4.723-3.604l-2.782-0.207
		c-0.204,1.1-0.817,1.648-1.836,1.648c-0.547,0-1.017-0.188-1.409-0.566c-0.395-0.377-0.592-0.937-0.592-1.678
		c0-0.137,0.004-0.298,0.012-0.483h6.688C88.684,1038.658,88.204,1037.151,87.247,1036.205z"/>
	<path fill="#404040" d="M98.424,1037.512l-2.243,0.598c-0.264-0.937-0.942-1.405-2.04-1.405c-1.036,0-1.553,0.312-1.553,0.937
		c0,0.248,0.093,0.445,0.28,0.594c0.189,0.148,0.685,0.271,1.483,0.373c1.191,0.156,2.071,0.337,2.644,0.543
		c0.57,0.206,1.022,0.554,1.358,1.04c0.333,0.487,0.5,1.089,0.5,1.804c0,1.071-0.407,1.941-1.224,2.617
		c-0.815,0.671-1.954,1.008-3.421,1.008c-2.655,0-4.241-1.025-4.756-3.076l2.593-0.381c0.214,0.936,0.984,1.404,2.316,1.404
		c0.508,0,0.938-0.091,1.289-0.272c0.352-0.183,0.528-0.428,0.528-0.736c-0.002-0.479-0.391-0.766-1.17-0.854
		c-2.105-0.266-3.492-0.67-4.156-1.216c-0.665-0.546-0.996-1.306-0.996-2.28c0-0.99,0.385-1.807,1.158-2.452
		c0.77-0.646,1.852-0.968,3.242-0.968c1.102,0,1.983,0.216,2.644,0.648C97.565,1035.867,98.071,1036.559,98.424,1037.512z"/>
	<path fill="#404040" d="M104.245,1037.38v4.4c0,0.548,0.082,0.917,0.246,1.103s0.549,0.277,1.159,0.277
		c0.278,0,0.604-0.014,0.973-0.041v2.273c-0.894,0.15-1.537,0.227-1.929,0.227c-1.279,0-2.188-0.246-2.724-0.736
		c-0.536-0.491-0.805-1.379-0.805-2.662v-4.841h-1.647v-2.377h1.836l0.244-3.063l2.647-0.206v3.269h2.242v2.376h-2.243V1037.38z"/>
	<path fill="#404040" d="M112.643,1036.785c1.07,0,1.654,0.721,1.748,2.161h-3.673
		C110.855,1037.505,111.497,1036.785,112.643,1036.785z M115.98,1036.205c-0.958-0.945-2.105-1.419-3.444-1.419
		c-1.484,0-2.698,0.509-3.642,1.524s-1.417,2.352-1.417,4.006c0,1.111,0.234,2.066,0.706,2.862c0.47,0.796,1.067,1.401,1.79,1.817
		c0.724,0.416,1.603,0.623,2.641,0.623c2.373,0,3.948-1.201,4.724-3.604l-2.782-0.207c-0.205,1.1-0.818,1.648-1.836,1.648
		c-0.547,0-1.018-0.188-1.411-0.566c-0.394-0.377-0.59-0.937-0.59-1.678c0-0.137,0.004-0.298,0.011-0.483h6.689
		C117.418,1038.658,116.938,1037.151,115.98,1036.205z"/>
	<path fill="#404040" d="M122.321,1045.402h-2.972v-10.399h2.809v1.919c0.435-1.441,1.185-2.162,2.251-2.162
		c0.151,0,0.338,0.012,0.559,0.031v3.021c-0.629,0-1.116,0.096-1.464,0.289c-0.349,0.192-0.634,0.538-0.853,1.037
		c-0.222,0.5-0.331,1.172-0.331,2.02L122.321,1045.402L122.321,1045.402z"/>
	<path fill="#404040" d="M135.721,1045.402h-3.08v-5.848c0-0.707-0.026-1.191-0.082-1.453c-0.056-0.26-0.188-0.482-0.4-0.665
		c-0.212-0.183-0.479-0.273-0.799-0.273c-1.072,0-1.608,0.798-1.608,2.392v5.848h-3.081v-10.399h2.864v1.755
		c0.473-0.834,0.94-1.371,1.399-1.611s0.957-0.359,1.492-0.359c0.988,0,1.784,0.266,2.387,0.798
		c0.605,0.532,0.907,1.576,0.907,3.135L135.721,1045.402L135.721,1045.402z"/>
	<path fill="#404040" d="M66.218,1051.979c0.694,0,1.289,0.146,1.784,0.438c0.494,0.291,0.907,0.8,1.241,1.525
		c0.334,0.725,0.5,1.514,0.5,2.366c0,1.212-0.291,2.268-0.876,3.166c-0.585,0.897-1.478,1.347-2.681,1.347h-1.359v-8.843H66.218z
		 M61.585,1063.472h4.841c2.087,0,3.725-0.675,4.911-2.027c1.189-1.354,1.783-3.038,1.783-5.054c0-1.604-0.34-2.93-1.02-3.978
		s-1.447-1.814-2.307-2.3c-0.859-0.482-2.164-0.727-3.914-0.727h-4.295V1063.472z"/>
	<path fill="#404040" d="M78.207,1053.061v10.411h-3.081v-10.411H78.207z M78.207,1049.115v3.079h-3.081v-3.079H78.207z"/>
	<path fill="#404040" d="M86.462,1054.963c0.294,0.314,0.443,0.68,0.443,1.095c0,0.443-0.157,0.82-0.47,1.132
		s-0.743,0.467-1.292,0.467c-1.131,0-1.697-0.533-1.697-1.598c0-0.47,0.149-0.85,0.448-1.137c0.297-0.286,0.711-0.43,1.239-0.43
		C85.724,1054.491,86.168,1054.647,86.462,1054.963z M91.093,1051.359c-0.274-0.057-0.561-0.082-0.862-0.082
		c-0.923,0-1.525,0.188-1.81,0.567c-0.285,0.38-0.456,0.864-0.517,1.45c-0.888-0.301-1.804-0.452-2.75-0.452
		c-1.497,0-2.669,0.303-3.516,0.908c-0.848,0.605-1.271,1.394-1.271,2.365c0,1.192,0.611,2.044,1.835,2.552
		c-1.386,0.559-2.079,1.336-2.079,2.336c0,0.799,0.441,1.419,1.325,1.858c-1.189,0.323-1.786,0.945-1.786,1.868
		c0,0.699,0.367,1.275,1.104,1.731c0.732,0.454,2.154,0.682,4.261,0.682c2.242,0,3.805-0.329,4.687-0.986
		c0.881-0.66,1.324-1.465,1.324-2.417c0-0.665-0.207-1.221-0.618-1.667c-0.412-0.447-0.92-0.729-1.524-0.846
		c-0.604-0.117-1.707-0.217-3.306-0.299c-1.127-0.055-1.837-0.141-2.131-0.26c-0.297-0.116-0.443-0.356-0.443-0.716
		c0-0.326,0.173-0.591,0.525-0.798c0.521,0.1,1.058,0.15,1.607,0.15c1.546,0,2.729-0.291,3.55-0.876
		c0.821-0.584,1.232-1.368,1.232-2.353c0-0.737-0.279-1.396-0.836-1.979c0.115-0.603,0.511-0.904,1.188-0.904
		c0.219,0,0.488,0.034,0.812,0.103V1051.359z M83.44,1063.451c0.131,0.02,0.383,0.029,0.761,0.029l0.619-0.009
		c1.53,0,2.47,0.072,2.824,0.218c0.354,0.144,0.531,0.35,0.531,0.618c0,0.351-0.212,0.605-0.635,0.765
		c-0.422,0.157-1.157,0.236-2.208,0.236c-0.801,0-1.503-0.057-2.099-0.173c-0.596-0.119-0.895-0.41-0.895-0.878
		c0-0.234,0.095-0.435,0.283-0.598c0.188-0.166,0.343-0.248,0.469-0.248C83.178,1063.411,83.296,1063.424,83.44,1063.451z"/>
	<path fill="#404040" d="M95.467,1053.061v10.411h-3.08v-10.411H95.467z M95.467,1049.115v3.079h-3.08v-3.079H95.467z"/>
	<path fill="#404040" d="M101.463,1055.438v4.408c0,0.55,0.083,0.919,0.247,1.104c0.164,0.187,0.55,0.278,1.159,0.278
		c0.278,0,0.604-0.015,0.973-0.041v2.274c-0.894,0.152-1.537,0.227-1.928,0.227c-1.281,0-2.188-0.245-2.724-0.735
		c-0.536-0.489-0.805-1.38-0.805-2.667v-4.849h-1.648v-2.377h1.838l0.242-3.063l2.647-0.205v3.269h2.242v2.377L101.463,1055.438
		L101.463,1055.438z"/>
	<path fill="#404040" d="M111.386,1059.44c0,0.655-0.18,1.209-0.54,1.656c-0.361,0.449-0.807,0.672-1.337,0.672
		c-0.412,0-0.728-0.131-0.95-0.394c-0.221-0.264-0.332-0.577-0.332-0.941c0-1.081,1.053-1.728,3.16-1.938L111.386,1059.44
		L111.386,1059.44z M114.468,1061.524v-4.726c0-0.911-0.062-1.555-0.186-1.922c-0.122-0.367-0.359-0.716-0.711-1.046
		c-0.348-0.328-0.833-0.576-1.458-0.741c-0.624-0.165-1.286-0.248-1.992-0.248c-1.178,0-2.232,0.247-3.164,0.739
		c-0.933,0.492-1.489,1.328-1.675,2.508l2.836,0.268c0.122-1.01,0.714-1.516,1.777-1.516c0.994,0,1.491,0.506,1.491,1.514v0.597
		c-2.036,0.151-3.437,0.385-4.207,0.698c-0.769,0.313-1.326,0.746-1.674,1.297c-0.346,0.552-0.52,1.152-0.52,1.808
		c0,0.896,0.297,1.608,0.893,2.139c0.597,0.53,1.378,0.794,2.347,0.794c0.652,0,1.236-0.122,1.752-0.366
		c0.513-0.244,1.028-0.737,1.546-1.48c0,0.674,0.044,1.218,0.135,1.63h2.972C114.521,1063.081,114.468,1062.432,114.468,1061.524z"
		/>
	<path fill="#404040" d="M117.001,1063.472v-14.087h3.079v14.086L117.001,1063.472L117.001,1063.472z"/>
	<g>
		<rect x="15.739" y="1031.217" fill="#404040" width="8.225" height="8.225"/>
		<rect x="40.227" y="1055.52" fill="#404040" width="8.225" height="8.226"/>
		<polygon fill="#404040" points="40.294,1043.283 40.294,1048.163 33.126,1055.52 28.024,1055.52 28.024,1063.744 36.251,1063.744 
			36.251,1058.896 43.214,1051.509 48.52,1051.509 48.52,1043.283 		"/>
		<polygon fill="#404040" points="43.708,1039.375 48.469,1039.375 48.469,1031.149 40.243,1031.149 40.243,1036.108 
			20.637,1055.587 15.721,1055.587 15.721,1063.812 23.947,1063.812 23.947,1059.072 		"/>
		<polygon fill="#404040" points="21.03,1043.352 15.789,1043.352 15.789,1051.576 24.014,1051.576 24.014,1046.88 31.089,1039.377 
			36.267,1039.377 36.267,1031.149 28.042,1031.149 28.042,1036.156 		"/>
	</g>
</g>
</svg>
